<svg width="1520" height="2494" viewBox="0 0 1520 2494" fill="none" xmlns="http://www.w3.org/2000/svg">
<path fill-rule="evenodd" clip-rule="evenodd" d="M355.929 859.855C381.813 826.877 404.088 791.605 436.304 734.311C435.94 733.914 435.63 733.56 435.377 733.251C431.223 740.437 427.433 747.013 423.942 753.071C392.483 807.654 385.283 820.147 355.234 857.458C355.47 858.261 355.701 859.06 355.929 859.855ZM510.094 810.349C505.443 806.673 502.722 803.918 499.787 797.998C503.359 802.084 506.822 806.217 510.094 810.349ZM511.127 811.662L511.029 811.972L510.789 812.73L511.488 812.124C511.415 812.031 511.343 811.938 511.27 811.844L511.127 811.662ZM515.961 808.643L555.812 769.451C555.13 767.143 554.462 764.869 553.803 762.628C535.641 700.872 525.037 664.818 469.456 663.985L452.801 661.515C390.81 702.027 332.351 791.625 301.86 886.22C310.324 973.515 324.641 998.4 356.081 1043.54L243.207 1272.09C240.525 1346.59 245.226 1382.79 268.651 1433.82C296.551 1516.87 333.408 1553.11 367.843 1586.97C390.343 1609.1 411.809 1630.21 429.065 1662.69L424.271 1669.5C451.085 1711.77 466.2 1735.1 520.172 1654.19C478.613 1668.77 468.551 1665.59 481.781 1633.17C492.798 1651.32 502.997 1639.82 509.441 1631.66C507.306 1621.72 502.409 1605.57 487.418 1595.21C475.444 1570.19 459.525 1546.36 443.067 1521.72C408.192 1469.52 370.898 1413.69 363.602 1335.29C390.667 1358.19 414.013 1379.85 434.675 1429.23L434.346 1429.67C435.604 1442.42 437.005 1448.67 441.998 1456.56C442.822 1456.23 443.636 1455.84 444.458 1455.38C453.467 1482.22 461.957 1515.76 470.023 1558.7C477.938 1548.14 485.536 1537.99 492.815 1528.23L588.417 1654.78C602.124 1679.21 614.25 1698.95 625.378 1717.08C658.837 1771.56 683.278 1811.36 714.529 1919.54L714.532 1919.53C721.003 1916.76 722.72 1916.02 723.368 1916.57C723.427 1916.62 723.478 1916.68 723.522 1916.75C721.268 1919.74 718.959 1922.79 716.59 1925.92L697.224 2015.63C706.49 2040.07 715.003 2027.12 763.654 1953.12L763.663 1953.1C769.448 1944.3 775.8 1934.64 782.788 1924.08C790.525 1915.95 802.407 1874.41 820.468 1811.28L820.469 1811.27L820.469 1811.27L820.487 1811.21C822.521 1804.1 824.634 1796.71 826.827 1789.07L817.814 1770.15C817.251 1771.2 816.691 1772.25 816.134 1773.28C794.684 1714.57 780.785 1684.49 767.313 1655.34L767.313 1655.33C751.867 1621.91 736.983 1589.69 711.922 1516.94C700.172 1469.55 681.576 1430.43 667.555 1400.93C654.631 1373.74 645.593 1354.72 649.384 1344.95C662.278 1331.93 676.715 1364.42 696.241 1408.37C713.473 1447.15 734.669 1494.86 762.265 1528.08C823.77 1629.12 824.302 1633.42 829.852 1678.34C831.683 1693.16 834.06 1712.4 839.352 1740.99C837.512 1743.53 835.633 1746.1 833.711 1748.71L840.149 1762.22C870.857 1737.05 883.693 1729.67 895.868 1732.97C948.04 1688.38 976.154 1642.05 981.205 1590.64C976.558 1588.78 974.358 1586.24 972.697 1584.33C968.403 1579.4 967.713 1578.6 937.688 1604.13C930.78 1612.97 924.443 1621.28 918.529 1629.19L905.429 1582.79L865.319 1347.3L837.794 1176.05L822.616 1082.1C823.826 1080.15 825.043 1078.19 826.267 1076.21C798.263 1049.99 777.894 1024.55 762.409 1000.49L763.239 999.053C759.759 988.63 757.01 983.893 750.537 980.696C735.18 953.183 725.59 927.841 717.205 905.684L717.204 905.683L717.204 905.682L717.204 905.682L717.203 905.681L717.203 905.681L717.203 905.68L717.203 905.679L717.202 905.678L717.202 905.677L717.198 905.668C712.658 893.671 708.472 882.609 703.914 872.641C717.08 893.068 730.451 903.596 743.766 914.079C754.065 922.189 764.331 930.272 774.441 942.89L882.63 1141.36C892.327 1128.87 900.365 1122.09 907.44 1118.11L889.496 1143.58C890.567 1181.55 900.644 1195.68 906.732 1201.99C912.77 1192.42 921.524 1177.04 913.393 1154.86C934.807 1138.08 934.526 1155.9 917.437 1224.46C958.291 1162.49 961.55 1124.04 955.366 1093.52C957.995 1090.1 960.751 1085.99 963.675 1081.01C946.669 1053.78 930.917 1018.61 914.763 982.553C888.65 924.259 861.488 863.623 826.288 830.402C811.178 798.68 779.572 763.229 754.491 735.096L754.491 735.096C739.97 718.808 727.637 704.974 721.959 695.738C706.769 669.202 681.823 670.976 648.329 678.136C613.088 718.036 604.599 725.74 586.78 741.913C573.579 753.894 555.259 770.521 517.15 808.326C516.757 808.425 516.361 808.531 515.961 808.643ZM362.374 1030.8L367.951 1019.5L367.946 1019.48L380.812 995.173L384.602 989.838C383.944 990.131 383.283 990.423 382.618 990.714C382.638 990.106 382.65 989.521 382.654 988.959C375.376 1002.05 369.553 1014.93 363.85 1027.54L363.823 1027.59C363.34 1028.66 362.857 1029.73 362.374 1030.8ZM610.326 1342.35C621.732 1314.67 622.491 1293.35 614.08 1270.03C620.369 1293.36 619.123 1316.32 610.326 1342.35ZM621.725 1270.65C617.844 1267.67 614.113 1263.74 610.506 1258.85C608.909 1254.52 607.057 1250.16 604.951 1245.75C610.343 1255.94 615.853 1264.35 621.725 1270.65ZM367.962 1019.56C369.448 1071.9 395.623 1091.89 439.003 1102.28C403.235 1092.87 378.595 1073.07 367.962 1019.56ZM474.965 1108.67C487.12 1110.31 500.125 1111.75 513.884 1113.26L513.89 1113.26C523.236 1114.29 532.929 1115.36 542.938 1116.56L542.972 1116.55C527.573 1114.31 512.965 1112.78 499.225 1111.35C490.806 1110.47 482.714 1109.62 474.965 1108.67ZM543.21 1116.35L543.228 1116.3L543.321 1115.2L543.21 1116.35ZM555.456 971.672C560.923 894.858 560.921 840.229 545.135 818.61C558.796 839.71 560.601 890.267 555.456 971.672Z" fill="url(#paint0_linear_598_134)" fill-opacity="0.56"/>
<path d="M883.312 1151.79L668.724 1267.61C662.831 1283.96 660.906 1292.41 662.413 1304.89C671.932 1305.31 682.853 1300.93 709.748 1286.98L858.066 1205.39C876.339 1196.46 882.807 1191.51 883.312 1182.74C882.783 1165.84 884.259 1158.94 883.312 1151.79Z" fill="white"/>
<path d="M1315.64 891.418L1088.43 1033.36C1088.32 1062.03 1095.35 1070.34 1154.7 1034.12C1213.82 996.977 1249.63 973.439 1321.95 922.759C1323.91 906.908 1323.06 899.605 1315.64 891.418Z" fill="white"/>
<path d="M826.508 727.081L856.408 704.436L1119.99 553.603L1124.72 552.216L1129.46 550.829C1203.88 561.192 1141.71 680.493 984.293 944.125C879.223 876.055 793.901 855.371 826.508 727.081Z" fill="white"/>
<path d="M856.408 704.436L826.508 727.081M856.408 704.436L1119.99 553.603L1124.72 552.216M856.408 704.436C877.389 707.15 891.413 705.239 955.892 687.367C921.171 725.111 904.9 746.18 870.688 775.582C855.177 784.792 844.979 765.674 826.508 727.081M826.508 727.081C793.901 855.371 879.223 876.055 984.293 944.125C1141.71 680.493 1203.88 561.192 1129.46 550.829M1129.46 550.829L1124.72 552.216M1129.46 550.829L1151.55 567.678L1113.68 633.946C1099.54 649.24 1091.34 654.469 1075.81 657.155C1039.03 667.87 1027.21 664.502 1006.38 658.216C1066.65 613.465 1093.09 590.119 1124.72 552.216M668.724 1267.61L883.312 1151.79C884.259 1158.94 882.783 1165.84 883.312 1182.74C882.807 1191.51 876.339 1196.46 858.066 1205.39L709.748 1286.98C682.853 1300.93 671.932 1305.31 662.413 1304.89C660.906 1292.41 662.831 1283.96 668.724 1267.61ZM1088.43 1033.36L1315.64 891.418C1323.06 899.605 1323.91 906.908 1321.95 922.759C1249.63 973.439 1213.82 996.977 1154.7 1034.12C1095.35 1070.34 1088.32 1062.03 1088.43 1033.36Z" stroke="#ADADAD" stroke-width="0.140592"/>
<path d="M1444.98 434.538C1347.25 552.342 1356.13 603.32 1337.69 702.361" stroke="#ADADAD" stroke-width="0.140592"/>
<path d="M782.039 1837.59L782.035 1784.16C824.774 1701.46 850.128 1766.5 933.953 1703.5L933.953 1731.76C933.953 1794.86 926.065 1809.93 910.26 1816.23C835.46 1869.68 778.789 1876.95 782.039 1837.59Z" fill="#7A7A7A"/>
<path d="M953.003 1761.63L953.003 1741.45C1029.01 1699.65 927.628 1749.5 1017.12 1703.5C1088.68 1683.31 1118.18 1734.62 1134.66 1752.13C1156.03 1816.23 1134.66 1837.59 1070.55 1816.23C1057.58 1805.38 995.746 1794.88 953.003 1761.63Z" fill="#7A7A7A"/>
<path d="M782.039 1837.59L782.035 1784.16C824.774 1701.46 850.128 1766.5 933.953 1703.5L933.953 1731.76C933.953 1794.86 926.065 1809.93 910.26 1816.23C835.46 1869.68 778.789 1876.95 782.039 1837.59Z" stroke="#ADADAD" stroke-width="0.140592"/>
<path d="M953.003 1761.63L953.003 1741.45C1029.01 1699.65 927.628 1749.5 1017.12 1703.5C1088.68 1683.31 1118.18 1734.62 1134.66 1752.13C1156.03 1816.23 1134.66 1837.59 1070.55 1816.23C1057.58 1805.38 995.746 1794.88 953.003 1761.63Z" stroke="#ADADAD" stroke-width="0.140592"/>
<path d="M637.149 1445.9C691.024 1242.53 669.077 1182.1 637.149 1112.27C582.602 1261.11 637.829 1385.84 637.149 1503.3C549.68 1557.29 588.902 1526.44 526.701 1558.66C524.381 1427.47 439.509 1378.55 463.585 1180.18C464.664 1104.46 480.011 1057.4 526.699 967.466L826.491 727.102C779.102 834.488 865.233 871.302 984.276 944.146C1117.09 716.121 1214.01 566.171 1129.44 552.195C1293.77 491.968 1252.22 515.973 1368.35 464.713C1413.5 474.629 1445.05 486.382 1448.16 527.434C1452.43 566.997 1497.32 676.176 1497.32 750.977C1535.68 848.791 1506.43 1023 1519.36 1135.28C1452.61 1181.44 1461.31 1124.61 1385.05 1164.1L1368.35 860.085C1356.85 811.634 1330.47 791.984 1323.01 734.48C1321.88 806.05 1295.15 904.282 1354.07 1052.65C1053.86 1250.5 989.233 1247.62 984.55 1137.15C984.649 1256.01 893.518 1307.6 637.149 1445.9Z" fill="#575656"/>
<path d="M984.276 944.146C865.233 871.302 779.102 834.488 826.491 727.102L526.699 967.466C480.011 1057.4 464.664 1104.46 463.585 1180.18C439.509 1378.55 524.381 1427.47 526.701 1558.66C588.902 1526.44 549.68 1557.29 637.149 1503.3C637.829 1385.84 582.602 1261.11 637.149 1112.27C669.077 1182.1 691.024 1242.53 637.149 1445.9C901.534 1303.28 990.187 1252.86 984.276 1125.8M984.276 944.146C1117.09 716.121 1214.01 566.171 1129.44 552.195C1293.77 491.968 1252.22 515.973 1368.35 464.713C1413.5 474.629 1445.05 486.382 1448.16 527.434C1452.43 566.997 1497.32 676.176 1497.32 750.976C1535.68 848.791 1506.43 1023 1519.36 1135.28C1452.61 1181.44 1461.31 1124.61 1385.05 1164.1L1368.35 860.085C1354.89 803.355 1321.02 786.111 1321.02 701.357C1332.94 775.217 1285.51 879.982 1354.07 1052.65C1043.89 1257.07 985.203 1247.2 984.276 1125.8M984.276 944.146L984.276 1125.8" stroke="#ADADAD" stroke-width="0.140592"/>
<path d="M637.149 1445.9C691.024 1242.53 669.077 1182.1 637.149 1112.27C582.602 1261.11 637.829 1385.84 637.149 1503.3C549.68 1557.29 588.902 1526.44 526.701 1558.66C524.381 1427.47 439.509 1378.55 463.585 1180.18C464.664 1104.46 480.011 1057.4 526.699 967.466L826.491 727.102C779.102 834.488 865.233 871.302 984.276 944.146C1117.09 716.121 1214.01 566.171 1129.44 552.195C1293.77 491.968 1252.22 515.973 1368.35 464.713C1413.5 474.629 1445.05 486.382 1448.16 527.434C1452.43 566.997 1497.32 676.176 1497.32 750.977C1535.68 848.791 1506.43 1023 1519.36 1135.28C1452.61 1181.44 1461.31 1124.61 1385.05 1164.1L1368.35 860.085C1356.85 811.634 1330.47 791.984 1323.01 734.48C1321.88 806.05 1295.15 904.282 1354.07 1052.65C1053.86 1250.5 989.233 1247.62 984.55 1137.15C984.649 1256.01 893.518 1307.6 637.149 1445.9Z" fill="url(#paint1_linear_598_134)"/>
<path d="M984.276 944.146C865.233 871.302 779.102 834.488 826.491 727.102L526.699 967.466C480.011 1057.4 464.664 1104.46 463.585 1180.18C439.509 1378.55 524.381 1427.47 526.701 1558.66C588.902 1526.44 549.68 1557.29 637.149 1503.3C637.829 1385.84 582.602 1261.11 637.149 1112.27C669.077 1182.1 691.024 1242.53 637.149 1445.9C901.534 1303.28 990.187 1252.86 984.276 1125.8M984.276 944.146C1117.09 716.121 1214.01 566.171 1129.44 552.195C1293.77 491.968 1252.22 515.973 1368.35 464.713C1413.5 474.629 1445.05 486.382 1448.16 527.434C1452.43 566.997 1497.32 676.176 1497.32 750.976C1535.68 848.791 1506.43 1023 1519.36 1135.28C1452.61 1181.44 1461.31 1124.61 1385.05 1164.1L1368.35 860.085C1354.89 803.355 1321.02 786.111 1321.02 701.357C1332.94 775.217 1285.51 879.982 1354.07 1052.65C1043.89 1257.07 985.203 1247.2 984.276 1125.8M984.276 944.146L984.276 1125.8" stroke="#ADADAD" stroke-width="0.140592"/>
<path d="M867.516 1762.82C835.459 1784.19 840.042 1774.08 814.087 1773.51C782.03 1730.77 795.328 1746.13 739.287 1623.91L681.914 1417C927.175 1277.27 985.056 1247.1 982.319 1147.41C981.584 1141.34 981.182 1134.74 981.103 1127.6C981.73 1134.51 982.146 1141.1 982.319 1147.41C994.783 1250.31 1102.91 1200.09 1350.32 1043.6L1309.99 1181.61L1209.46 1420.88C1171.42 1486.12 1166.72 1559.79 1113.29 1645.28C1096.98 1662.2 1106.98 1692.44 1081.23 1741.45C1081.23 1741.45 995.744 1730.77 963.687 1741.45C974.373 1634.59 968.324 1697.7 995.744 1570.48C995.744 1442.25 1025.07 1267.16 981.103 1283.68C959.556 1304.29 982.831 1405.32 957.385 1529.71C935.347 1723.65 959.673 1559.49 942.316 1741.45C910.259 1730.77 904.56 1738.13 867.516 1762.82Z" fill="#525252" stroke="#ADADAD" stroke-width="0.140592"/>
<path d="M867.516 1762.82C835.459 1784.19 840.042 1774.08 814.087 1773.51C782.03 1730.77 795.328 1746.13 739.287 1623.91L681.914 1417C927.175 1277.27 985.056 1247.1 982.319 1147.41C981.584 1141.34 981.182 1134.74 981.103 1127.6C981.73 1134.51 982.146 1141.1 982.319 1147.41C994.783 1250.31 1102.91 1200.09 1350.32 1043.6L1309.99 1181.61L1209.46 1420.88C1171.42 1486.12 1166.72 1559.79 1113.29 1645.28C1096.98 1662.2 1106.98 1692.44 1081.23 1741.45C1081.23 1741.45 995.744 1730.77 963.687 1741.45C974.373 1634.59 968.324 1697.7 995.744 1570.48C995.744 1442.25 1025.07 1267.16 981.103 1283.68C959.556 1304.29 982.831 1405.32 957.385 1529.71C935.347 1723.65 959.673 1559.49 942.316 1741.45C910.259 1730.77 904.56 1738.13 867.516 1762.82Z" fill="url(#paint2_linear_598_134)" stroke="#ADADAD" stroke-width="0.140592"/>
<path d="M744.438 795.953L712.881 880.107L744.438 861.887C744.265 869.378 737.019 877.998 712.881 900.291L984.271 944.098C1130.48 787.178 1188.47 710.392 1258.82 574.33C1230.58 582.444 1220.53 584.048 1217.79 579.177L1249.35 556.92L1205.17 525.912M529.851 965.596C621.299 964.759 633.356 1008.9 633.989 1111.35" stroke="#ADADAD" stroke-width="0.140592"/>
<path d="M642.867 1591.06C529.698 1660.23 524.805 1623.15 516.639 1556.29L630.244 1490.7C650.533 1514.25 646.543 1541.94 642.867 1557.42C630.233 1563.82 611.052 1572.25 608.154 1543.82C573.079 1576.22 583.536 1585.74 642.867 1591.06Z" fill="#EDEDED" stroke="#ADADAD" stroke-width="0.140592"/>
<path d="M1379.18 1285.55C1496.26 1213.14 1502.93 1155.27 1508.66 1103.4L1392.13 1170.68C1371.32 1217.87 1375.41 1240.84 1379.18 1251.99C1392.14 1243.62 1411.82 1229.62 1414.79 1197.87C1450.77 1189.22 1440.04 1210.94 1379.18 1285.55Z" fill="#EDEDED" stroke="#ADADAD" stroke-width="0.140592"/>
<path d="M1116.8 385.827C1145.24 420.121 1147.42 449.459 1116.8 527.213C1116.74 537.963 1118.72 543 1123.11 551.566C1016.71 667.045 959.33 701.439 861.187 699.988C867.702 687.349 867.314 681.999 861.187 674.791C834.248 641.438 834.396 612.11 845.408 552.313C933.569 514.086 989.473 479.088 1116.8 385.827Z" fill="#EDEDED"/>
<path d="M1116.8 527.213C1022.28 638.33 966.136 671.513 861.187 674.791M1116.8 527.213C1147.42 449.459 1145.24 420.121 1116.8 385.827C989.473 479.088 933.569 514.086 845.408 552.313C834.396 612.11 834.248 641.438 861.187 674.791M1116.8 527.213C1116.74 537.963 1118.72 543 1123.11 551.566C1016.71 667.045 959.33 701.439 861.187 699.988C867.702 687.349 867.314 681.999 861.187 674.791" stroke="#ADADAD" stroke-width="0.140592"/>
<path d="M876.396 550.611C852.07 621.102 890.682 622.964 976.52 565.564C922.742 576.793 900.739 573.751 876.396 550.611Z" fill="#8A8A8A" stroke="#ADADAD" stroke-width="0.140592"/>
<path d="M1101.59 430.577C1125.92 468.528 1087.3 513.072 1001.47 555.407C1055.24 506.101 1077.25 478.893 1101.59 430.577Z" fill="#8A8A8A" stroke="#ADADAD" stroke-width="0.140592"/>
<path d="M873.81 689.693C859.83 659.085 890.378 614.143 905.365 521.031C970.356 488.799 982.999 478.414 1075.77 413.341C1079.03 426.462 1110.17 494.614 1123.11 553.514L1202 525.026C1216.61 433.256 1227.77 380.583 1157.82 347.359L1138.89 335.026C1039.45 350.13 915.733 427.452 823.317 526.526C782.696 638.695 785.835 677.139 798.073 750.48C821.971 730.665 844.748 709.174 873.81 689.693Z" fill="#3F3F3F" stroke="#787878" stroke-width="0.140592"/>
<path d="M981.115 675.471C995.415 777.358 989.262 837.969 984.271 942.768" stroke="#ADADAD" stroke-width="0.140592"/>
<path d="M955.881 687.371C979.173 677.939 990.52 670.671 1009.53 656.398" stroke="#ADADAD" stroke-width="0.140592"/>
<defs>
<linearGradient id="paint0_linear_598_134" x1="574.102" y1="1392" x2="935.962" y2="1768.15" gradientUnits="userSpaceOnUse">
<stop stop-color="#302F2F"/>
<stop offset="1" stop-color="#2B2B2B" stop-opacity="0"/>
</linearGradient>
<linearGradient id="paint1_linear_598_134" x1="989.323" y1="633.09" x2="1222.23" y2="1052.61" gradientUnits="userSpaceOnUse">
<stop stop-color="#3D3D3D"/>
<stop offset="1" stop-color="#3D3D3D" stop-opacity="0"/>
</linearGradient>
<linearGradient id="paint2_linear_598_134" x1="1016.12" y1="1107.38" x2="1137.49" y2="1297.37" gradientUnits="userSpaceOnUse">
<stop stop-color="#3C3C3C"/>
<stop offset="1" stop-color="#3C3C3C" stop-opacity="0"/>
</linearGradient>
</defs>
</svg>
