<svg width="122" height="105" viewBox="0 0 122 105" fill="none" xmlns="http://www.w3.org/2000/svg">
<path d="M40.9727 40.0767C44.9109 39.8615 48.3355 40.8435 51.2467 43.0226C54.1806 45.2004 55.7329 47.851 55.9035 50.9744C56.0742 54.0977 55.2584 56.6166 53.4561 58.5311C51.6539 60.4457 49.2917 61.46 46.3696 61.5743C44.8067 61.637 43.5613 61.6937 42.6333 61.7444L41.0377 61.8316C40.3814 61.8674 40.0396 61.6364 40.0124 61.1385C40.0025 60.9574 40.1695 60.4829 40.5135 59.715C41.6424 57.1109 42.4627 54.4669 42.9744 51.783C40.6432 51.9103 38.4239 51.3846 36.3164 50.2058C34.209 49.0271 33.1107 47.6229 33.0217 45.9933C32.9314 44.3411 33.6286 42.975 35.1132 41.8951C36.5978 40.8152 38.551 40.209 40.9727 40.0767ZM40.913 41.4761C39.4192 41.5577 38.2596 41.9388 37.4342 42.6196C36.6088 43.3003 36.2301 44.263 36.2981 45.5078C36.3649 46.73 37.0133 47.7956 38.2434 48.7045C39.4949 49.5895 41.1232 50.1021 43.1285 50.2422C43.6682 47.239 43.9711 45.3043 44.0372 44.438L46.0853 44.5304C46.162 45.9337 45.9692 47.8056 45.5069 50.1463C45.6879 50.1365 46.7342 49.9658 48.6456 49.6343L48.8766 50.7454C48.4326 50.9286 47.1894 51.2348 45.1471 51.6642C44.4203 54.5642 43.6384 57.0813 42.8016 59.2154C45.0748 59.2728 46.9583 59.2607 48.452 59.1791C49.9684 59.0963 51.1377 58.4762 51.9598 57.319C52.7806 56.1391 53.1391 54.5986 53.0352 52.6974C52.8559 49.4156 51.5829 46.6817 49.2161 44.4956C46.8493 42.3094 44.0816 41.3029 40.913 41.4761ZM87.1682 49.1299L87.1098 51.1761C86.5867 51.1593 86.0197 51.1676 85.4086 51.201C84.8201 51.2331 84.3228 51.2717 83.9167 51.3166C83.7359 53.8235 83.6799 56.5393 83.7489 59.4638L81.3725 59.5937C81.2045 59.0127 81.094 58.2355 81.0408 57.2623C80.9876 56.2891 80.9645 55.4504 80.9714 54.7463C80.9997 54.0184 81.04 53.3011 81.0922 52.5946C81.1444 51.888 81.1674 51.4781 81.1612 51.365C80.8431 51.3596 80.0956 51.3891 78.9187 51.4534C77.7418 51.5177 76.9282 51.5849 76.4781 51.6549C74.0456 55.3291 71.7704 58.1434 69.6525 60.0978C67.5334 62.0297 65.3649 63.0562 63.1468 63.1774C62.0605 63.2367 61.1259 62.9586 60.3432 62.3431C59.583 61.7263 59.1733 60.8747 59.1139 59.7883C59.0014 57.7287 60.4604 55.7649 63.491 53.8968C66.5443 52.0274 70.5444 50.6625 75.4915 49.802C76.0305 48.8645 77.0521 47.4126 78.5564 45.4463C80.0595 43.4573 81.5535 41.7185 83.0385 40.23C83.6309 38.6086 84.1028 37.4818 84.4542 36.8497C84.827 36.1937 85.2057 35.8552 85.5905 35.8342C85.9753 35.8132 86.3002 35.943 86.5652 36.2236C86.8302 36.5042 86.9757 36.8822 87.0017 37.3575C87.0264 37.8101 86.8033 38.5033 86.3322 39.4371C85.8825 40.347 85.4373 41.756 84.9968 43.6642C84.555 45.5498 84.2774 47.3243 84.164 48.9876C85.3409 48.9233 86.3423 48.9707 87.1682 49.1299ZM70.2417 57.1713C72.0226 55.2807 73.3444 53.5059 74.2072 51.8471C70.4172 52.2812 67.5139 53.1549 65.4972 54.4682C63.5031 55.7802 62.5432 57.1153 62.6174 58.4732C62.6496 59.0617 62.8673 59.5152 63.2706 59.8336C63.6965 60.1509 64.2377 60.2916 64.894 60.2557C66.6594 60.1592 68.442 59.1311 70.2417 57.1713ZM81.448 49.136C81.5644 48.3578 81.7156 47.3848 81.9015 46.2169C82.1087 45.0252 82.2295 44.3262 82.2636 44.12C81.2341 45.2205 80.5179 46.0314 80.1151 46.5529C79.7111 47.0516 79.0036 48.021 77.9926 49.461C78.3761 49.4173 78.8395 49.3807 79.3827 49.351C79.9473 49.2974 80.41 49.2495 80.7709 49.207C81.1318 49.1646 81.3575 49.1409 81.448 49.136Z" fill="#861C1C"/>
</svg>
