<svg width="154" height="140" viewBox="0 0 154 140" fill="none" xmlns="http://www.w3.org/2000/svg">
<path d="M51.9727 60.077C55.9109 59.8618 59.3355 60.8437 62.2467 63.0228C65.1806 65.2007 66.7329 67.8513 66.9035 70.9746C67.0742 74.098 66.2584 76.6169 64.4561 78.5314C62.6539 80.4459 60.2917 81.4603 57.3696 81.5745C55.8067 81.6372 54.5613 81.6939 53.6333 81.7446L52.0377 81.8318C51.3814 81.8677 51.0396 81.6367 51.0124 81.1387C51.0025 80.9577 51.1695 80.4832 51.5135 79.7153C52.6424 77.1111 53.4627 74.4671 53.9744 71.7832C51.6432 71.9106 49.4239 71.3849 47.3164 70.2061C45.209 69.0273 44.1107 67.6231 44.0217 65.9936C43.9314 64.3414 44.6286 62.9753 46.1132 61.8954C47.5978 60.8154 49.551 60.2093 51.9727 60.077ZM51.913 61.4763C50.4192 61.5579 49.2596 61.9391 48.4342 62.6198C47.6088 63.3005 47.2301 64.2633 47.2981 65.5081C47.3649 66.7303 48.0133 67.7958 49.2434 68.7047C50.4949 69.5898 52.1232 70.1024 54.1285 70.2425C54.6682 67.2392 54.9711 65.3045 55.0372 64.4383L57.0853 64.5307C57.162 65.9339 56.9692 67.8059 56.5069 70.1466C56.6879 70.1367 57.7342 69.966 59.6456 69.6346L59.8766 70.7456C59.4326 70.9288 58.1894 71.2351 56.1471 71.6645C55.4203 74.5645 54.6384 77.0815 53.8016 79.2157C56.0748 79.2731 57.9583 79.261 59.452 79.1794C60.9684 79.0965 62.1377 78.4765 62.9598 77.3192C63.7806 76.1393 64.1391 74.5988 64.0352 72.6977C63.8559 69.4159 62.5829 66.6819 60.2161 64.4958C57.8493 62.3097 55.0816 61.3032 51.913 61.4763ZM98.1682 69.1301L98.1098 71.1764C97.5867 71.1596 97.0197 71.1678 96.4086 71.2012C95.8201 71.2334 95.3228 71.2719 94.9167 71.3168C94.7359 73.8237 94.6799 76.5395 94.7489 79.4641L92.3725 79.5939C92.2045 79.0129 92.094 78.2358 92.0408 77.2626C91.9876 76.2893 91.9645 75.4507 91.9714 74.7466C91.9997 74.0186 92.04 73.3014 92.0922 72.5948C92.1444 71.8882 92.1674 71.4784 92.1612 71.3652C91.8431 71.3599 91.0956 71.3894 89.9187 71.4537C88.7418 71.518 87.9282 71.5851 87.4781 71.6551C85.0456 75.3293 82.7704 78.1436 80.6525 80.0981C78.5334 82.0299 76.3649 83.0564 74.1468 83.1776C73.0605 83.237 72.1259 82.9589 71.3432 82.3433C70.583 81.7265 70.1733 80.875 70.1139 79.7886C70.0014 77.729 71.4604 75.7651 74.491 73.897C77.5443 72.0277 81.5444 70.6627 86.4915 69.8022C87.0305 68.8647 88.0521 67.4128 89.5564 65.4465C91.0595 63.4575 92.5535 61.7188 94.0385 60.2302C94.6309 58.6088 95.1028 57.482 95.4542 56.8499C95.827 56.1939 96.2057 55.8554 96.5905 55.8344C96.9753 55.8134 97.3002 55.9432 97.5652 56.2238C97.8302 56.5044 97.9757 56.8824 98.0017 57.3577C98.0264 57.8104 97.8033 58.5036 97.3322 59.4373C96.8825 60.3472 96.4373 61.7563 95.9968 63.6645C95.555 65.5501 95.2774 67.3245 95.164 68.9878C96.3409 68.9235 97.3423 68.971 98.1682 69.1301ZM81.2417 77.1716C83.0226 75.2809 84.3444 73.5062 85.2072 71.8473C81.4172 72.2814 78.5139 73.1551 76.4972 74.4684C74.5031 75.7805 73.5432 77.1155 73.6174 78.4735C73.6496 79.0619 73.8673 79.5154 74.2706 79.8339C74.6965 80.1511 75.2377 80.2918 75.894 80.2559C77.6594 80.1595 79.442 79.1314 81.2417 77.1716ZM92.448 69.1362C92.5644 68.3581 92.7156 67.385 92.9015 66.2171C93.1087 65.0254 93.2295 64.3264 93.2636 64.1203C92.2341 65.2207 91.5179 66.0317 91.1151 66.5531C90.7111 67.0519 90.0036 68.0213 88.9926 69.4612C89.3761 69.4176 89.8395 69.3809 90.3827 69.3512C90.9473 69.2977 91.41 69.2497 91.7709 69.2073C92.1318 69.1649 92.3575 69.1412 92.448 69.1362Z" fill="#861C1C"/>
<path d="M67.262 46.5832C-14.228 74.6124 33.7812 100.595 61.7812 100.585C63.2813 100.585 79.7814 100.864 89.2804 98.0757C176.271 72.5444 114.255 28.0663 42.2607 43.0913" stroke="#861C1C" stroke-width="3" stroke-linecap="round"/>
</svg>
