<svg width="154" height="140" viewBox="0 0 154 140" fill="none" xmlns="http://www.w3.org/2000/svg">
<path d="M67.0042 46.6027C-14.4858 74.6319 33.5234 100.615 61.5234 100.605C63.0235 100.604 79.5236 100.883 89.0226 98.0952C176.014 72.5639 113.998 28.0858 42.0029 43.1108" stroke="#861C1C" stroke-width="3" stroke-linecap="round"/>
<path d="M62.7556 60.7951L64.3241 61.4585C62.9697 64.5062 61.6051 68.4058 60.2302 73.1573C61.2714 73.1004 61.9868 73.1067 62.3765 73.1762L62.3464 75.1187C61.8798 75.3031 60.9562 75.433 59.5755 75.5085C59.172 76.8471 58.9472 77.9264 58.9012 78.7461C58.8552 79.5658 58.8192 80.3623 58.7934 81.1355C58.7902 81.9075 58.7847 82.4299 58.7769 82.7028L56.8757 82.8066C56.7415 82.4281 56.6633 82.0351 56.641 81.6277C56.5644 80.2244 56.8296 78.2237 57.4367 75.6253C56.0788 75.6995 54.0278 75.9705 51.2839 76.4382C51.1905 76.8065 50.9447 77.501 50.5465 78.5216C50.147 79.5195 49.7407 80.393 49.3276 81.142C48.9372 81.8897 48.392 82.714 47.6921 83.6149C46.9922 84.5157 46.251 85.2826 45.4683 85.9156C43.2286 87.7178 41.0111 88.6789 38.8157 88.7989C37.9104 88.8483 37.1481 88.6062 36.5287 88.0726C35.9093 87.5389 35.5761 86.842 35.5291 85.982C35.4104 83.8092 36.5476 81.7721 38.9408 79.8707C41.3554 77.9455 44.7516 76.3298 49.1295 75.0237C50.5373 70.0434 52.7006 66.4294 55.6197 64.1814C52.3404 64.406 49.666 65.1083 47.5967 66.2883C45.5273 67.4683 44.5378 68.8844 44.628 70.5366C44.6565 71.0571 44.7604 71.5054 44.9399 71.8816C45.1181 72.235 45.5231 72.7918 46.1548 73.5518L45.0599 74.7012C44.0294 74.1219 43.2292 73.3938 42.6591 72.5169C42.0891 71.6401 41.7812 70.7829 41.7355 69.9455C41.6588 68.5423 42.3352 67.2114 43.7647 65.9528C45.1929 64.6717 46.9987 63.6536 49.1821 62.8987C51.3643 62.1212 53.5983 61.67 55.8842 61.5451C57.0385 61.482 57.8356 61.5292 58.2755 61.6868C58.7369 61.8205 58.9805 62.125 59.0065 62.6003C59.0312 63.053 58.7265 63.5009 58.0924 63.9442C55.3598 65.8641 53.2682 69.3381 51.8177 74.366C53.1406 74.0667 55.1979 73.7046 57.9896 73.2797C58.9028 70.0517 59.6462 67.6616 60.2197 66.1093C60.8146 64.5332 61.6599 62.7618 62.7556 60.7951ZM41.4037 86.308C42.2411 86.2622 43.1939 85.8356 44.2621 85.0281C45.3542 84.242 46.2415 83.2401 46.9241 82.0224C47.6281 80.7808 48.1948 79.1041 48.6242 76.9922C45.6412 77.6546 43.2564 78.6702 41.4698 80.039C39.7045 81.384 38.8652 82.8486 38.9517 84.4329C38.9864 85.0667 39.194 85.5434 39.5747 85.8631C39.9792 86.2042 40.5889 86.3525 41.4037 86.308ZM87.7992 61.5719C87.861 62.7036 87.3729 63.7404 86.3347 64.6824C85.3192 65.6232 84.121 66.3357 82.74 66.8197C81.3816 67.3026 80.0574 67.5792 78.7673 67.6497C78.4279 67.6683 78.1783 67.6706 78.0186 67.6566L77.9555 66.5023C78.0008 66.4998 78.6516 66.3621 79.9079 66.0892C81.163 65.7936 82.2057 65.3507 83.0361 64.7605C83.8891 64.1691 84.297 63.5339 84.2599 62.8549C84.2154 62.0401 83.5821 61.6661 82.3599 61.7329C80.7077 61.8232 79.1769 62.4743 77.7676 63.6864C76.3583 64.8984 75.6877 66.1268 75.7557 67.3716C75.8237 68.6164 76.6371 69.3778 78.1959 69.6559C78.5404 69.7279 78.7717 69.806 78.8898 69.8904C79.0079 69.9747 79.0731 70.1301 79.0855 70.3564C79.0979 70.5827 78.9952 70.7813 78.7775 70.9521C78.5813 71.099 78.1058 71.3293 77.3511 71.6429C73.2645 73.2963 71.3035 75.6281 71.468 78.6383C71.5014 79.2494 71.643 79.7638 71.8928 80.1814C73.177 78.3406 74.8864 76.8058 77.0212 75.5768C79.156 74.3478 81.2419 73.6777 83.2789 73.5664C84.3426 73.5083 85.2043 73.6995 85.864 74.1402C86.5225 74.5582 86.874 75.1746 86.9185 75.9894C86.9877 77.2569 86.4685 78.5565 85.3609 79.8882C84.2532 81.22 82.7818 82.3332 80.9465 83.228C79.1351 84.1442 77.3015 84.653 75.4456 84.7544C73.6123 84.8546 72.1453 84.5942 71.0444 83.9734C71.023 83.9972 70.9304 84.1725 70.7667 84.4993C70.3635 85.4294 70.0134 86.0841 69.7163 86.4635L68.57 86.0495C68.6938 85.4071 69.1052 84.4198 69.8043 83.0877C68.6988 81.9677 68.1066 80.6834 68.0274 79.2349C67.947 77.7638 68.4594 76.3397 69.5646 74.9627C70.6912 73.5618 72.2947 72.3732 74.3752 71.3969C73.2633 70.5724 72.6813 69.6848 72.6294 68.7342C72.5589 67.4441 73.1661 66.0943 74.4512 64.6848C75.7349 63.2526 77.3272 62.0646 79.2278 61.1209C81.1511 60.1759 82.9728 59.6564 84.6929 59.5624C85.5983 59.5129 86.3336 59.677 86.8991 60.0548C87.4633 60.4098 87.7633 60.9156 87.7992 61.5719ZM81.4211 75.7109C80.0858 75.7839 78.5519 76.3785 76.8196 77.4946C75.1098 78.6096 73.7388 79.899 72.7065 81.3628C73.6674 82.3318 74.974 82.7712 76.6262 82.6809C78.3011 82.5894 79.9016 81.9685 81.4277 80.8182C82.9753 79.644 83.7151 78.4345 83.6471 77.1897C83.6199 76.6918 83.4065 76.3175 83.0069 76.067C82.606 75.7937 82.0775 75.6751 81.4211 75.7109ZM104.013 61.401L99.1531 61.5645C94.1965 61.8353 91.7776 63.0571 91.8963 65.2298C91.9272 65.7957 92.1562 66.2485 92.5834 66.5884C93.032 66.9044 93.675 67.0395 94.5124 66.9937C95.3498 66.948 96.4265 66.5032 97.7424 65.6595L98.2999 66.5144C97.6391 67.2996 96.8791 67.9313 96.0199 68.4096C95.1607 68.8878 94.2898 69.1511 93.4071 69.1993C92.5244 69.2475 91.7501 68.9947 91.0843 68.4409C90.4184 67.8871 90.0613 67.1688 90.0131 66.2861C89.9154 64.4981 90.792 62.8839 92.6428 61.4435C94.5163 60.0018 97.1052 59.1907 100.41 59.0101C100.478 59.0064 101.204 59.0008 102.588 58.9932C106.357 59.0143 109.046 58.9809 110.653 58.8931C114.206 58.699 116.381 58.4212 117.179 58.0598C117.491 57.952 117.681 57.8962 117.748 57.8925C118.065 57.8752 118.238 58.1268 118.266 58.6473C118.294 59.1453 117.956 59.6177 117.254 60.0647C116.575 60.5104 115.59 60.7685 114.3 60.839C113.623 61.33 112.928 62.3101 112.213 63.7792C111.521 65.2245 110.872 67.2803 110.269 69.9465C109.687 72.5888 109.424 74.4193 109.479 75.4377C109.534 76.4336 109.822 77.1329 110.343 77.5357C110.886 77.9147 111.706 78.1763 112.804 78.3207L112.159 79.6158C111.573 79.6932 111.133 79.7399 110.839 79.756C109.775 79.8141 108.93 79.5085 108.303 78.839C107.698 78.1456 107.361 77.1766 107.293 75.9318C107.164 73.5779 107.627 70.8173 108.679 67.6498C109.731 64.4597 110.902 62.2164 112.193 60.9201L110.089 61.0351C109.318 61.8944 108.692 62.8934 108.209 64.0321C107.748 65.1469 107.333 66.4749 106.963 68.016C106.616 69.5559 106.378 70.6131 106.251 71.1876C106.123 71.762 105.927 72.5332 105.662 73.5011C105.42 74.4678 105.209 75.1717 105.028 75.6128C104.87 76.0301 104.66 76.5637 104.401 77.2135C104.141 77.8633 103.883 78.3314 103.626 78.6178C103.391 78.8804 103.101 79.18 102.756 79.5166C102.196 80.0693 101.395 80.3741 100.354 80.431L100.395 78.6922C101.427 78.4542 102.134 77.8935 102.517 77.0099C102.922 76.1252 103.543 73.9801 104.378 70.5748C105.214 67.1695 105.812 65.037 106.174 64.1773C106.557 63.2938 107.319 62.2873 108.461 61.1581L106.494 61.2996L106.086 61.3218C104.672 62.852 103.497 65.4586 102.564 69.1417C101.651 72.8009 100.466 75.6238 99.0083 77.6103C97.5719 79.5729 95.79 80.6123 93.6625 80.7286C92.8251 80.7743 92.0181 80.546 91.2415 80.0436L91.9519 78.7109C92.6029 78.9931 93.2453 79.1169 93.879 79.0823C95.0106 79.0205 95.9881 78.4222 96.8114 77.2876C97.6574 76.1518 98.4848 74.0522 99.2935 70.9888C100.124 67.9016 100.784 65.8566 101.274 64.8537C101.785 63.8269 102.698 62.676 104.013 61.401Z" fill="#861C1C"/>
</svg>
