<svg width="122" height="105" viewBox="0 0 122 105" fill="none" xmlns="http://www.w3.org/2000/svg">
<path d="M46.7575 39.7947L48.326 40.4581C46.9716 43.5059 45.607 47.4055 44.2322 52.1569C45.2733 52.1 45.9887 52.1063 46.3784 52.1758L46.3484 54.1184C45.8817 54.3028 44.9581 54.4327 43.5775 54.5081C43.1739 55.8468 42.9491 56.926 42.9031 57.7457C42.8571 58.5655 42.8212 59.3619 42.7953 60.1352C42.7921 60.9072 42.7866 61.4296 42.7788 61.7024L40.8776 61.8063C40.7435 61.4277 40.6652 61.0347 40.643 60.6273C40.5663 59.2241 40.8315 57.2233 41.4387 54.625C40.0807 54.6992 38.0298 54.9701 35.2859 55.4379C35.1925 55.8062 34.9467 56.5006 34.5484 57.5212C34.149 58.5191 33.7427 59.3926 33.3296 60.1416C32.9391 60.8893 32.394 61.7136 31.6941 62.6145C30.9942 63.5154 30.2529 64.2823 29.4703 64.9153C27.2306 66.7175 25.0131 67.6785 22.8177 67.7985C21.9124 67.848 21.15 67.6059 20.5306 67.0722C19.9113 66.5385 19.5781 65.8417 19.5311 64.9816C19.4124 62.8089 20.5496 60.7718 22.9428 58.8704C25.3573 56.9451 28.7536 55.3294 33.1315 54.0233C34.5392 49.0431 36.7026 45.429 39.6216 43.1811C36.3423 43.4056 33.668 44.1079 31.5986 45.2879C29.5293 46.4679 28.5397 47.884 28.63 49.5362C28.6584 50.0568 28.7624 50.5051 28.9418 50.8812C29.12 51.2347 29.525 51.7914 30.1568 52.5514L29.0618 53.7008C28.0314 53.1215 27.2311 52.3934 26.6611 51.5166C26.0911 50.6397 25.7832 49.7825 25.7374 48.9451C25.6608 47.5419 26.3372 46.211 27.7666 44.9525C29.1949 43.6713 31.0007 42.6533 33.1841 41.8984C35.3662 41.1208 37.6003 40.6696 39.8862 40.5447C41.0405 40.4816 41.8376 40.5289 42.2775 40.6864C42.7388 40.8201 42.9824 41.1246 43.0084 41.5999C43.0332 42.0526 42.7285 42.5005 42.0944 42.9438C39.3617 44.8637 37.2701 48.3377 35.8196 53.3657C37.1426 53.0664 39.1999 52.7042 41.9915 52.2793C42.9048 49.0513 43.6482 46.6612 44.2217 45.109C44.8166 43.5328 45.6618 41.7614 46.7575 39.7947ZM25.4056 65.3076C26.243 65.2618 27.1959 64.8352 28.2641 64.0277C29.3561 63.2417 30.2435 62.2398 30.926 61.022C31.63 59.7804 32.1967 58.1037 32.6261 55.9918C29.6432 56.6542 27.2584 57.6698 25.4717 59.0387C23.7065 60.3836 22.8671 61.8483 22.9537 63.4326C22.9883 64.0663 23.196 64.543 23.5766 64.8627C23.9812 65.2038 24.5908 65.3521 25.4056 65.3076ZM71.8012 40.5715C71.863 41.7032 71.3748 42.74 70.3367 43.6821C69.3212 44.6229 68.1229 45.3353 66.7419 45.8194C65.3836 46.3022 64.0594 46.5789 62.7693 46.6493C62.4298 46.6679 62.1802 46.6702 62.0206 46.6562L61.9575 45.5019C62.0028 45.4995 62.6535 45.3617 63.9099 45.0888C65.1649 44.7932 66.2077 44.3503 67.038 43.7602C67.891 43.1687 68.299 42.5335 68.2619 41.8545C68.2174 41.0398 67.584 40.6658 66.3618 40.7325C64.7096 40.8228 63.1789 41.474 61.7696 42.686C60.3603 43.898 59.6896 45.1264 59.7576 46.3712C59.8257 47.6161 60.6391 48.3775 62.1979 48.6555C62.5423 48.7275 62.7736 48.8057 62.8917 48.89C63.0098 48.9744 63.0751 49.1297 63.0874 49.356C63.0998 49.5824 62.9972 49.7809 62.7795 49.9517C62.5832 50.0986 62.1077 50.3289 61.353 50.6426C57.2665 52.296 55.3055 54.6278 55.4699 57.6379C55.5033 58.249 55.6449 58.7634 55.8948 59.1811C57.1789 57.3403 58.8884 55.8054 61.0232 54.5764C63.158 53.3475 65.2439 52.6773 67.2808 52.566C68.3446 52.5079 69.2063 52.6992 69.866 53.1398C70.5244 53.5579 70.8759 54.1743 70.9204 54.9891C70.9897 56.2565 70.4705 57.5561 69.3628 58.8879C68.2552 60.2196 66.7837 61.3329 64.9485 62.2277C63.1371 63.1438 61.3034 63.6526 59.4475 63.754C57.6143 63.8542 56.1472 63.5939 55.0464 62.973C55.025 62.9969 54.9324 63.1722 54.7687 63.4989C54.3655 64.429 54.0153 65.0837 53.7182 65.4632L52.572 65.0491C52.6958 64.4067 53.1072 63.4195 53.8062 62.0873C52.7008 60.9673 52.1085 59.6831 52.0294 58.2345C51.949 56.7634 52.4614 55.3393 53.5666 53.9623C54.6932 52.5614 56.2967 51.3728 58.3772 50.3966C57.2652 49.572 56.6833 48.6844 56.6313 47.7338C56.5608 46.4438 57.1681 45.094 58.4531 43.6844C59.7369 42.2522 61.3291 41.0643 63.2298 40.1205C65.1531 39.1755 66.9748 38.656 68.6949 38.562C69.6002 38.5126 70.3356 38.6767 70.901 39.0544C71.4653 39.4095 71.7653 39.9152 71.8012 40.5715ZM65.423 54.7106C64.0877 54.7835 62.5539 55.3781 60.8215 56.4943C59.1118 57.6092 57.7408 58.8986 56.7084 60.3624C57.6694 61.3315 58.976 61.7708 60.6282 61.6805C62.303 61.589 63.9035 60.9681 65.4297 59.8178C66.9773 58.6436 67.7171 57.4341 67.649 56.1893C67.6218 55.6914 67.4084 55.3172 67.0088 55.0666C66.608 54.7934 66.0794 54.6747 65.423 54.7106ZM88.0154 40.4007L83.1551 40.5641C78.1985 40.8349 75.7795 42.0567 75.8982 44.2295C75.9292 44.7953 76.1582 45.2481 76.5854 45.588C77.034 45.904 77.6769 46.0391 78.5144 45.9934C79.3518 45.9476 80.4285 45.5029 81.7444 44.6592L82.3019 45.514C81.641 46.2992 80.881 46.931 80.0219 47.4092C79.1627 47.8875 78.2917 48.1507 77.409 48.199C76.5264 48.2472 75.7521 47.9944 75.0862 47.4405C74.4203 46.8867 74.0633 46.1685 74.0151 45.2858C73.9174 43.4978 74.7939 41.8836 76.6448 40.4431C78.5182 39.0014 81.1072 38.1903 84.4116 38.0097C84.4795 38.006 85.2056 38.0004 86.5899 37.9929C90.3593 38.0139 93.0475 37.9805 94.6545 37.8927C98.2078 37.6986 100.383 37.4208 101.181 37.0594C101.493 36.9516 101.683 36.8958 101.75 36.8921C102.067 36.8748 102.24 37.1264 102.268 37.647C102.296 38.1449 101.958 38.6173 101.256 39.0643C100.577 39.51 99.5921 39.7681 98.3021 39.8386C97.6252 40.3296 96.9296 41.3097 96.2154 42.7789C95.5225 44.2241 94.8744 46.2799 94.2709 48.9461C93.6889 51.5885 93.4257 53.4189 93.4813 54.4374C93.5357 55.4332 93.8237 56.1326 94.3451 56.5354C94.8879 56.9143 95.7081 57.176 96.8056 57.3203L96.1613 58.6154C95.5753 58.6928 95.1352 58.7396 94.841 58.7556C93.7772 58.8138 92.9319 58.5081 92.3051 57.8386C91.6998 57.1453 91.363 56.1762 91.295 54.9314C91.1664 52.5776 91.6285 49.8169 92.6813 46.6494C93.7328 43.4593 94.9041 41.2161 96.1953 39.9197L94.0905 40.0347C93.3202 40.894 92.6938 41.893 92.2112 43.0317C91.75 44.1465 91.3345 45.4745 90.9647 47.0156C90.6175 48.5555 90.3802 49.6127 90.2527 50.1872C90.1251 50.7617 89.9289 51.5329 89.664 52.5008C89.4217 53.4674 89.2105 54.1713 89.0303 54.6125C88.8715 55.0298 88.6623 55.5633 88.4027 56.2131C88.1431 56.8629 87.8849 57.331 87.6281 57.6175C87.3928 57.88 87.1027 58.1796 86.7579 58.5163C86.1978 59.069 85.3973 59.3738 84.3562 59.4307L84.3974 57.6918C85.4286 57.4539 86.1357 56.8931 86.5187 56.0096C86.9244 55.1248 87.545 52.9797 88.3804 49.5744C89.2159 46.1691 89.8144 44.0366 90.1761 43.1769C90.5591 42.2934 91.3213 41.287 92.4628 40.1577L90.4956 40.2992L90.0882 40.3215C88.6735 41.8516 87.4993 44.4582 86.5655 48.1413C85.6532 51.8005 84.4681 54.6234 83.0103 56.6099C81.5739 58.5725 79.7919 59.6119 77.6644 59.7282C76.827 59.7739 76.02 59.5456 75.2435 59.0433L75.9538 57.7105C76.6048 57.9927 77.2472 58.1166 77.8809 58.0819C79.0126 58.0201 79.9901 57.4219 80.8134 56.2873C81.6594 55.1514 82.4867 53.0518 83.2954 49.9885C84.1256 46.9012 84.7857 44.8562 85.2757 43.8533C85.7871 42.8265 86.7003 41.6757 88.0154 40.4007Z" fill="#861C1C"/>
</svg>
