<svg width="398" height="397" viewBox="0 0 398 397" fill="none" xmlns="http://www.w3.org/2000/svg">
<path d="M360.543 127.651C261.77 137.865 100.442 192.215 19.1729 214.074L61.6729 227.505L51.1729 253.505L79.1729 264.505L71.6729 289.005C78.5829 281.681 197.483 252.06 244.458 235.893C295.658 218.273 346.553 202.609 367.303 201.046L348.593 184.6L364.864 162.289L342.127 148.677C345.297 145.33 347.608 141.469 360.543 127.651Z" fill="#710303" stroke="#581919" stroke-width="2"/>
<path d="M360.543 127.646C261.77 137.86 100.442 192.21 19.1729 214.069L61.6729 227.5L51.1729 253.5L79.1729 264.5L71.6729 289C78.5829 281.676 197.483 252.054 244.458 235.888C295.658 218.267 346.553 202.604 367.303 201.04L348.593 184.595L364.864 162.284L342.127 148.672C345.297 145.325 347.608 141.464 360.543 127.646Z" fill="url(#paint0_linear_446_103)"/>
<path d="M112.841 236.486L114.078 236.947C113.802 238.563 113.188 240.039 112.235 241.373C111.313 242.698 110.358 243.511 109.37 243.811C108.381 244.112 107.512 244.062 106.764 243.662C106.015 243.262 105.51 242.632 105.249 241.771C104.987 240.91 105.074 239.246 105.509 236.78C105.967 234.272 106.041 232.508 105.731 231.487C105.595 231.04 105.283 230.7 104.793 230.465C104.326 230.189 103.838 230.128 103.327 230.283C101.701 230.778 100.436 232.52 99.533 235.512C98.6204 238.471 97.8507 242.59 97.2238 247.866L94.0481 247.733C93.5304 243.85 93.2968 239.984 93.3475 236.136C93.4204 232.247 93.7028 229.392 94.1947 227.571L96.3451 227.597C96.1398 230.132 96.1943 234.383 96.5084 240.35C98.6237 231.486 101.531 226.492 105.231 225.368C106.028 225.126 106.764 225.198 107.439 225.586C108.146 225.963 108.611 226.519 108.834 227.252C109.057 227.986 109.165 228.685 109.157 229.349C109.14 229.981 108.951 231.537 108.589 234.015C108.249 236.453 108.162 237.942 108.326 238.485C108.491 239.027 108.781 239.409 109.197 239.631C109.603 239.821 109.95 239.873 110.237 239.785C110.524 239.698 110.749 239.578 110.911 239.424C111.073 239.27 111.237 239.064 111.402 238.805C111.599 238.536 111.769 238.292 111.912 238.075C112.055 237.857 112.215 237.582 112.393 237.249C112.593 236.875 112.742 236.621 112.841 236.486ZM122.181 230.357C123.501 225.985 124.855 222.874 126.244 221.024C127.623 219.142 128.983 217.997 130.322 217.59C131.662 217.183 132.824 217.283 133.81 217.89C134.786 218.464 135.462 219.373 135.84 220.617C136.886 224.062 136.611 227.629 135.015 231.319C133.44 234.967 131.106 237.261 128.013 238.201C126.641 238.618 125.484 238.708 124.541 238.472L125.065 236.066C126.823 235.775 127.893 235.572 128.276 235.456C129.998 234.933 131.304 233.439 132.193 230.974C133.081 228.51 133.206 226.225 132.567 224.12C132.325 223.322 131.887 222.741 131.253 222.376C130.642 221.97 129.97 221.878 129.236 222.101C127.482 222.633 125.958 224.786 124.665 228.558C123.404 232.32 122.494 236.777 121.933 241.929C121.415 247.103 121.223 252.491 121.357 258.094L118.181 257.961C118.187 257.751 118.289 255.908 118.488 252.434C118.664 249.001 118.83 245.589 118.984 242.197C119.425 232.867 119.524 227.803 119.282 227.005C118.662 224.964 117.685 223.24 116.352 221.833L118.381 219.911C119.787 220.982 120.722 222.283 121.187 223.814C121.642 225.313 121.974 227.494 122.181 230.357ZM151.667 215.496C152.913 216.616 153.788 218.005 154.292 219.664C155.077 222.247 154.886 224.831 153.72 227.414C152.544 229.966 150.744 231.61 148.32 232.347C146.47 232.908 144.859 232.823 143.487 232.09C142.137 231.316 141.176 229.988 140.605 228.106C139.684 225.076 140.041 222.006 141.675 218.897C143.299 215.757 145.578 213.741 148.512 212.849C149.054 212.685 149.442 212.584 149.675 212.548L150.298 214.084C147.746 214.859 145.848 216.236 144.603 218.217C143.358 220.198 143.085 222.336 143.782 224.632C144.199 226.004 144.873 227.019 145.804 227.676C146.726 228.302 147.825 228.421 149.1 228.034C150.408 227.637 151.27 226.748 151.687 225.367C152.104 223.986 152.079 222.53 151.614 220.999C151.14 219.437 150.406 218.109 149.412 217.018L151.667 215.496ZM179.218 220.767L179.614 221.901C179.353 222.189 178.077 223.204 175.784 224.946C176.613 231.347 176.451 236.204 175.297 239.516C174.143 242.828 172.131 244.919 169.26 245.791C167.921 246.198 166.722 246.092 165.663 245.473C164.604 244.854 163.866 243.859 163.449 242.487C162.616 239.744 163.096 236.794 164.889 233.637C166.692 230.511 169.49 227.624 173.284 224.973C173.113 222.691 173.059 219.415 173.121 215.147C171.972 219.049 170.695 221.84 169.29 223.521C167.916 225.193 166.528 226.242 165.124 226.668C163.721 227.094 162.536 227.036 161.57 226.493C160.636 225.941 159.975 225.027 159.588 223.751C158.948 221.646 159.176 219.243 160.272 216.541C161.357 213.807 163.016 211.353 165.246 209.177C167.499 206.96 169.87 205.474 172.357 204.718L173.249 206.277C169.825 207.735 167.157 209.904 165.244 212.784C163.364 215.654 162.719 218.062 163.31 220.008C163.562 220.837 164.026 221.445 164.701 221.832C165.376 222.219 166.08 222.302 166.814 222.079C167.898 221.749 169.192 220.102 170.695 217.138C172.198 214.173 173.149 211.741 173.548 209.843L175.624 210.31C175.293 215.532 175.283 219.855 175.591 223.28L179.218 220.767ZM173.433 226.496C171.046 228.614 169.214 230.843 167.939 233.181C166.663 235.519 166.248 237.422 166.694 238.889C166.926 239.655 167.338 240.209 167.93 240.552C168.522 240.894 169.153 240.964 169.823 240.761C171.162 240.354 172.2 239.011 172.936 236.732C173.672 234.453 173.838 231.041 173.433 226.496ZM190.866 203.591C192.112 204.71 192.987 206.099 193.49 207.758C194.275 210.341 194.084 212.925 192.918 215.509C191.743 218.06 189.943 219.705 187.519 220.441C185.669 221.003 184.058 220.917 182.685 220.184C181.335 219.41 180.375 218.082 179.803 216.2C178.883 213.17 179.24 210.101 180.873 206.992C182.497 203.851 184.776 201.835 187.711 200.943C188.253 200.779 188.64 200.678 188.873 200.643L189.496 202.178C186.945 202.953 185.047 204.331 183.802 206.311C182.557 208.292 182.283 210.43 182.981 212.727C183.397 214.098 184.071 215.113 185.003 215.77C185.924 216.396 187.023 216.515 188.299 216.128C189.607 215.731 190.469 214.842 190.885 213.461C191.302 212.08 191.278 210.624 190.813 209.094C190.338 207.531 189.604 206.203 188.611 205.112L190.866 203.591ZM199.194 211.983L201.223 210.06C201.397 210.634 201.754 211.066 202.295 211.354C202.867 211.633 203.441 211.686 204.015 211.511C206.726 210.688 208.735 206.176 210.041 197.976C210.107 197.503 210.189 196.973 210.29 196.385C210.38 195.765 210.45 195.308 210.5 195.014C210.541 194.688 210.587 194.326 210.64 193.927C210.725 193.518 210.791 193.219 210.838 193.03C210.908 192.8 210.982 192.586 211.061 192.388C211.261 192.014 211.537 191.773 211.887 191.667C212.27 191.55 212.658 191.624 213.052 191.888C213.445 192.151 213.715 192.523 213.86 193.001C213.996 193.447 213.991 195.609 213.844 199.486C213.72 203.32 213.769 205.605 213.992 206.338C214.215 207.072 214.523 207.57 214.917 207.834C215.342 208.088 215.699 208.171 215.986 208.084C216.304 207.987 216.539 207.899 216.689 207.818C216.838 207.738 216.979 207.626 217.109 207.482C217.239 207.338 217.343 207.219 217.419 207.126C217.527 207.024 217.637 206.869 217.748 206.661L217.967 206.176C218.043 206.083 218.132 205.917 218.233 205.677C218.357 205.396 218.441 205.214 218.485 205.13L219.737 205.639C219.601 207.143 219.084 208.537 218.185 209.82C217.318 211.094 216.406 211.876 215.449 212.167C214.524 212.447 213.693 212.351 212.957 211.878C212.212 211.373 211.679 210.594 211.359 209.542C211.04 208.489 210.803 207.08 210.651 205.315C209.881 208.057 208.803 210.301 207.417 212.046C206.021 213.758 204.781 214.78 203.697 215.109C202.612 215.438 201.678 215.287 200.893 214.654C200.109 214.021 199.542 213.131 199.194 211.983ZM225.96 208.033C226.704 204.289 228.846 199.928 232.385 194.951C230.621 194.303 228.788 193.431 226.888 192.336C225.01 191.2 223.817 190.081 223.309 188.982L226.077 187.775C226.569 188.705 229.01 190.263 233.402 192.448C232.948 190.495 232.334 188.243 231.559 185.692L234.755 185.034L236.006 190.873C239.087 186.907 241.181 184.511 242.289 183.687L244.961 184.913C243.951 185.603 242.449 187.139 240.456 189.522C238.462 191.904 237.321 193.365 237.032 193.906C238.242 194.792 239.92 195.729 242.065 196.714C244.201 197.668 246.048 198.413 247.605 198.951L249.925 199.709L249.061 201.853C247.971 201.592 246.109 201.025 243.476 200.153C240.864 199.239 238.821 198.362 237.346 197.521C237.975 201.196 238.303 203.884 238.331 205.582L235.529 206.851C235.83 205.088 235.486 201.778 234.499 196.922C233.865 197.358 233 198.579 231.902 200.585C230.794 202.559 229.852 204.447 229.076 206.251L227.85 208.922L225.96 208.033ZM271.185 188.601L272.436 189.109C272.301 190.614 271.784 192.007 270.885 193.291C270.017 194.565 269.105 195.347 268.149 195.637C267.224 195.918 266.393 195.822 265.657 195.349C264.912 194.844 264.379 194.065 264.059 193.012C263.74 191.96 263.503 190.551 263.35 188.786C262.568 191.602 261.519 193.941 260.204 195.803C258.888 197.666 257.641 198.777 256.461 199.135C254.675 199.678 253.457 198.88 252.808 196.743C252.159 194.606 252.021 191.513 252.393 187.463C252.788 183.372 253.226 180.974 253.709 180.27L256.311 180.578C255.643 183.08 255.284 185.453 255.234 187.698C255.184 189.943 255.266 191.416 255.479 192.118C255.682 192.787 256.054 193.267 256.595 193.555C257.167 193.834 257.741 193.887 258.315 193.712C259.59 193.325 260.816 191.681 261.99 188.781C263.187 185.84 264.067 181.74 264.63 176.483L267.404 176.842C267.418 177.117 267.246 179.19 266.889 183.061C266.564 186.922 266.508 189.203 266.721 189.905C266.924 190.575 267.223 191.041 267.617 191.305C268.042 191.559 268.398 191.642 268.685 191.555C269.004 191.458 269.239 191.37 269.388 191.289C269.538 191.209 269.678 191.097 269.809 190.953C269.939 190.809 270.043 190.69 270.119 190.597C270.227 190.495 270.337 190.339 270.448 190.132L270.666 189.647C270.743 189.554 270.831 189.388 270.933 189.148C271.056 188.867 271.14 188.684 271.185 188.601ZM307.404 176.921L308.699 177.573C307.869 181.378 306.274 183.639 303.914 184.356C302.957 184.647 302.13 184.619 301.433 184.274C300.758 183.887 300.289 183.262 300.028 182.401C299.757 181.508 299.823 179.833 300.226 177.377C300.63 174.92 300.694 173.124 300.418 171.988C300.295 171.468 300.01 171.102 299.562 170.89C299.146 170.668 298.651 170.644 298.077 170.818C297.503 170.992 296.957 171.315 296.438 171.786C295.941 172.216 295.498 172.821 295.108 173.601C294.75 174.372 294.419 175.117 294.115 175.836C293.843 176.546 293.579 177.514 293.325 178.741C293.102 179.958 292.906 180.976 292.737 181.794C292.464 183.305 292.103 185.557 291.653 188.55L288.478 188.418C288.449 188.322 288.428 186.36 288.415 182.532C288.401 178.704 288.293 176.455 288.09 175.785C287.886 175.115 287.582 174.685 287.175 174.495C286.76 174.273 286.312 174.235 285.834 174.38C284.399 174.816 282.948 177.208 281.481 181.555C280.047 185.892 279.361 189.427 279.425 192.16L276.422 192.079C276.068 190.341 275.897 187.083 275.909 182.307C275.912 177.498 276.134 174.156 276.574 172.281L278.96 172.392C278.639 174.893 278.52 176.967 278.603 178.614C278.675 180.23 278.829 181.942 279.065 183.752C280.617 178.995 282.08 175.555 283.455 173.43C284.821 171.274 286.253 169.968 287.752 169.512C289.379 169.018 290.439 169.585 290.933 171.211C291.127 171.849 291.223 173.196 291.22 175.252C291.249 177.299 291.269 178.913 291.28 180.094C293.531 171.677 296.394 166.94 299.871 165.884C300.732 165.622 301.5 165.685 302.175 166.072C302.84 166.428 303.333 167.132 303.652 168.184C303.962 169.205 303.875 171.095 303.389 173.855C302.936 176.606 302.806 178.3 303 178.938C303.184 179.544 303.447 179.952 303.789 180.161C304.132 180.371 304.494 180.418 304.877 180.301C305.706 180.049 306.548 178.923 307.404 176.921ZM318.475 168.437C320.21 167.841 321.305 168.292 321.76 169.791C322.361 171.768 321.888 174.054 320.342 176.649C318.819 179.202 316.988 180.803 314.851 181.452C312.842 182.063 311.425 181.012 310.602 178.301C309.953 176.164 309.675 173.357 309.769 169.88C309.884 166.361 310.094 163.841 310.399 162.32L312.77 162.384C312.677 165.06 312.732 168.283 312.937 172.053C315.13 170.098 316.976 168.893 318.475 168.437ZM319.206 173.597C319.272 173.125 319.242 172.681 319.116 172.266C318.758 171.434 317.878 171.231 316.475 171.658C315.805 171.861 314.648 172.526 313.005 173.652C313.04 174.687 313.174 175.586 313.407 176.352C313.629 177.086 313.984 177.622 314.471 177.962C314.989 178.293 315.551 178.366 316.157 178.182C316.795 177.988 317.448 177.441 318.115 176.542C318.773 175.61 319.137 174.629 319.206 173.597Z" fill="#CCCCCC"/>
<defs>
<linearGradient id="paint0_linear_446_103" x1="272.599" y1="74.9949" x2="231.501" y2="150.504" gradientUnits="userSpaceOnUse">
<stop stop-color="#DA2828"/>
<stop offset="1" stop-color="#CD7272" stop-opacity="0"/>
</linearGradient>
</defs>
</svg>
