<svg width="118" height="116" viewBox="0 0 118 116" fill="none" xmlns="http://www.w3.org/2000/svg">
<path d="M99.3743 73.7839C90.8507 95.3609 65.7548 105.792 43.2388 96.8978C20.7227 88.0033 9.53108 63.2371 18.0547 41.66C26.5783 20.083 51.6742 9.65152 74.1902 18.5461C96.7063 27.4406 107.898 52.2068 99.3743 73.7839Z" stroke="black" stroke-width="3.82926"/>
<path d="M21.2514 79.7491L103.023 60.6568L24.1787 29.5108L70.0946 99.0438L73.9296 17.5988L21.2514 79.7491Z" stroke="black" stroke-width="2.55284"/>
<path d="M99.8548 74.2468C91.3312 95.8238 66.2353 106.255 43.7193 97.3607C21.2032 88.4662 10.0115 63.7 18.5352 42.1229C27.0588 20.5459 52.1546 10.1144 74.6707 19.009C97.1867 27.9035 108.378 52.6697 99.8548 74.2468Z" stroke="#860101" stroke-width="3.82926"/>
<path d="M21.7319 80.212L103.503 61.1197L24.6592 29.9737L70.5751 99.5066L74.4101 18.0616L21.7319 80.212Z" stroke="#860101" stroke-width="2.55284"/>
</svg>
