<svg width="51" height="53" viewBox="0 0 51 53" fill="none" xmlns="http://www.w3.org/2000/svg">
<path d="M22.4629 12.4405C22.2951 12.9124 22.1591 13.1618 21.6938 13.5262C22.4688 13.6728 22.7967 13.8087 23.2731 14.106L31.6688 10.9357C31.7204 10.3335 31.7507 9.96761 31.8026 9.34105L31.8088 9.26714C31.1052 9.00852 30.6503 9.08829 29.7605 9.52231L29.7572 10.3231L26.932 10.2446L27.1344 9.54353L27.2524 9.13459C26.5285 8.55426 26.0402 8.26175 26.3044 7.28862C26.1075 7.41304 25.9935 7.44972 25.7669 7.30901C25.5862 7.04953 25.5517 6.96218 25.5851 6.47278C25.5588 6.15088 25.4909 6.02466 25.959 5.83541C26.2165 5.85261 26.2672 6.063 26.5405 6.47075C26.8795 6.59671 27.1518 6.59715 27.3507 6.1635C27.5142 6.15921 27.5759 6.11655 27.6065 5.93506C27.7757 5.9123 27.8652 5.884 27.9787 5.69808C28.522 5.42106 28.6499 5.22909 28.9024 4.73445C31.1225 5.65119 32.3374 5.97458 33.682 5.80362C33.9897 5.05552 34.1169 4.62435 33.5801 3.65728C32.8849 2.89862 32.6009 2.44813 30.7256 1.9703C29.3074 1.71958 28.5381 1.74626 27.2341 2.22657C25.9636 3.0922 25.4315 3.73433 24.7042 5.07118C23.4866 7.84001 23.0203 9.4613 22.4629 12.4405Z" fill="#6C6C6C" stroke="#525252" stroke-width="0.254364"/>
<path d="M27.0991 9.65972L27.2755 9.04865L29.8884 9.73136L29.7619 10.1695L27.0991 9.65972Z" fill="#696969"/>
<path d="M27.2762 9.04632L27.0991 9.65972L29.7619 10.1695L29.8884 9.73136L27.2402 9.03943" stroke="#525252" stroke-width="0.254364"/>
<path d="M19.7299 29.7945C19.239 29.5771 19.3988 29.1269 19.7028 28.3097C20.7532 28.9001 21.4093 29.0364 22.776 28.7132C23.777 29.3006 24.0982 29.6918 24.6444 30.3963C24.0222 31.1424 23.2991 31.0164 22.1267 30.9623C20.9502 30.6718 20.45 30.3988 19.7299 29.7945Z" fill="#E5E5E5"/>
<path d="M25.6761 29.4533L25.9459 28.5186C27.0626 28.8375 27.7251 28.911 29.1349 28.3894C30.3256 29.0429 30.7025 29.4664 31.3378 30.229C30.8598 30.5988 30.3753 30.6336 29.4358 30.6355L26.0916 30.1185C25.5689 30.0623 25.6066 29.8439 25.6761 29.4533Z" fill="#E5E5E5"/>
<path d="M19.7299 29.7945C19.239 29.5771 19.3988 29.1269 19.7028 28.3097C20.7532 28.9001 21.4093 29.0364 22.776 28.7132C23.777 29.3006 24.0982 29.6918 24.6444 30.3963C24.0222 31.1424 23.2991 31.0164 22.1267 30.9623C20.9502 30.6718 20.45 30.3988 19.7299 29.7945Z" stroke="#525252" stroke-width="0.254364"/>
<path d="M25.6761 29.4533L25.9459 28.5186C27.0626 28.8375 27.7251 28.911 29.1349 28.3894C30.3256 29.0429 30.7025 29.4664 31.3378 30.229C30.8598 30.5988 30.3753 30.6336 29.4358 30.6355L26.0916 30.1185C25.5689 30.0623 25.6066 29.8439 25.6761 29.4533Z" stroke="#525252" stroke-width="0.254364"/>
<path d="M20.3078 25.0355C20.673 24.1551 20.9874 22.9979 21.8039 21.9005L29.8943 23.2645C29.3896 24.3873 29.1692 25.5078 28.9887 27.1906C27.8109 27.4698 27.1977 27.4421 26.1888 27.0245C26.0831 26.0016 26.012 25.4198 26.2348 24.629L26.6058 23.3438L24.9866 23.0338C25.0919 23.2398 24.9667 23.3908 24.8095 23.6472C23.5247 24.6991 23.4707 25.4003 22.8795 27.4389C21.6179 27.8018 21.0192 27.6288 20.0307 27.0476C19.9652 26.2693 19.9833 25.8306 20.3078 25.0355Z" fill="#A2A2A2"/>
<path d="M22.1048 21.5266C21.0587 22.7294 20.7148 24.0543 20.3078 25.0355C19.9833 25.8306 19.9652 26.2693 20.0307 27.0476C21.0192 27.6288 21.6179 27.8018 22.8795 27.4389C23.4707 25.4003 23.5247 24.6991 24.8095 23.6472C24.9667 23.3908 25.0919 23.2398 24.9866 23.0338L26.6058 23.3438L26.2348 24.629C26.012 25.4198 26.0831 26.0016 26.1888 27.0245C27.1977 27.4421 27.8109 27.4698 28.9887 27.1906C29.1692 25.5078 29.3896 24.3873 29.8943 23.2645L21.8039 21.9005" stroke="#525252" stroke-width="0.254364"/>
<path d="M19.6485 28.2374C19.7245 27.7327 19.786 27.4664 19.9858 27.0691C20.9835 27.6482 21.5976 27.7454 22.7987 27.4535C23.1168 27.5738 22.981 27.9836 22.7937 28.6546C21.388 29.0914 20.7209 28.9268 19.6485 28.2374Z" fill="#B6B6B6"/>
<path d="M25.9191 28.4824C25.8771 27.721 25.7807 27.1829 26.1715 27.082C27.3483 27.5222 27.9561 27.5011 28.9883 27.1898C28.9729 27.7961 29.0611 27.935 29.161 28.3016C28.0114 28.7991 27.3175 28.8987 25.9191 28.4824Z" fill="#B6B6B6"/>
<path d="M19.6485 28.2374C19.7245 27.7327 19.786 27.4664 19.9858 27.0691C20.9835 27.6482 21.5976 27.7454 22.7987 27.4535C23.1168 27.5738 22.981 27.9836 22.7937 28.6546C21.388 29.0914 20.7209 28.9268 19.6485 28.2374Z" stroke="#525252" stroke-width="0.254364"/>
<path d="M25.9191 28.4824C25.8771 27.721 25.7807 27.1829 26.1715 27.082C27.3483 27.5222 27.9561 27.5011 28.9883 27.1898C28.9729 27.7961 29.0611 27.935 29.161 28.3016C28.0114 28.7991 27.3175 28.8987 25.9191 28.4824Z" stroke="#525252" stroke-width="0.254364"/>
<path d="M34.0941 14.2364L35.0105 12.3775C35.5194 12.4807 35.8555 12.5341 36.8074 12.5982L36.7484 12.8027C36.838 12.5949 36.9067 12.483 37.3319 12.3596C37.5411 12.3011 37.6444 12.2511 37.8121 12.1432C38.0686 11.9154 38.1559 11.8898 38.2394 11.9785C38.355 12.2923 38.2973 12.4433 37.929 12.6588C38.8181 12.9708 39.3789 13.141 38.9225 13.558C39.0317 13.8416 39.0232 13.9628 38.7792 14.0545C38.7933 14.3139 38.71 14.4095 38.3564 14.4668L38.3559 14.4675C38.2485 14.6251 38.1881 14.7138 37.6137 14.5403C36.985 14.6917 36.648 14.7051 36.1637 14.1703C35.6015 14.3644 35.0181 14.2897 34.0941 14.2364Z" fill="#A2A2A2"/>
<path d="M38.3564 14.4668C38.2487 14.6249 38.189 14.7141 37.6137 14.5403C36.985 14.6917 36.648 14.7051 36.1637 14.1703C35.6015 14.3644 35.0181 14.2897 34.0941 14.2364L35.0105 12.3775C35.5194 12.4807 35.8555 12.5341 36.8074 12.5982L36.7484 12.8027C36.838 12.5949 36.9067 12.483 37.3319 12.3596C37.5411 12.3011 37.6444 12.2511 37.8121 12.1432C38.0686 11.9154 38.1559 11.8898 38.2394 11.9785C38.355 12.2923 38.2973 12.4433 37.929 12.6588M38.3564 14.4668C38.2393 14.3815 38.1052 14.3312 37.8144 14.2397M38.3564 14.4668C38.71 14.4095 38.7933 14.3139 38.7792 14.0545C39.0232 13.9628 39.0317 13.8416 38.9225 13.558C39.3789 13.141 38.8181 12.9708 37.929 12.6588M37.929 12.6588C37.9383 13.1253 37.8016 13.2141 37.4832 13.2824M38.1292 13.8068C38.2518 13.8937 38.3293 13.9365 38.4913 13.9994M38.2389 13.4271L38.6347 13.5029" stroke="#525252" stroke-width="0.254364"/>
<path d="M19.189 20.7519C18.0928 19.7679 17.4392 19.3188 16.2367 18.6146C18.0235 16.5887 19.4422 15.6795 23.5017 14.8888C20.9631 14.9109 19.8925 15.0396 19.6279 15.8116C19.0745 16.1942 18.6297 16.3626 17.4808 16.541C16.8989 15.6884 16.6533 15.1748 16.3354 14.1949C17.4151 14.6667 18.0461 14.843 19.2861 14.7598C19.3806 14.1948 19.4885 13.9415 19.8308 13.662C21.3251 13.3641 22.0745 13.5406 23.3358 14.1481C23.5346 12.8551 23.4742 12.0495 24.5726 11.1792L25.1123 11.2825L26.6073 10.1816C26.5897 9.85664 26.6578 9.71449 27.1082 9.63025L29.8789 10.1607C29.8729 10.2385 29.8557 10.3056 29.8282 10.364C30.0068 10.2406 30.2768 10.275 30.5396 10.5029C30.8308 10.225 31.1062 10.321 31.1996 10.3211C31.293 10.3211 31.7006 10.855 31.9688 11.2081C33.022 11.817 33.7446 12.0586 35.2523 12.3299C34.9682 13.3161 34.6612 13.7896 34.129 14.6424C32.841 14.2598 32.0801 13.9943 31.1424 14.0706L30.9991 14.5672C33.4524 14.5494 35.0757 15.1956 38.2902 17.196L38.2799 17.2301C38.1312 17.7224 38.0446 18.0089 37.5639 18.6598C38.0863 18.7567 38.1837 19.1131 38.5765 19.6243C36.0746 22.3509 34.1071 23.1589 29.7456 23.5127C26.5029 23.4902 24.8199 23.2148 22.0582 22.2567C20.7027 21.7331 20.0896 21.3995 19.189 20.7519Z" fill="#D9D9D9"/>
<path d="M29.8789 10.1607L29.7058 10.4974C29.8608 10.2362 30.2061 10.2136 30.5396 10.5029C30.8308 10.225 31.1062 10.321 31.1996 10.3211C31.293 10.3211 31.7006 10.855 31.9688 11.2081C33.022 11.817 33.7446 12.0586 35.2523 12.3299C34.9682 13.3161 34.6612 13.7896 34.129 14.6424C32.841 14.2598 32.0801 13.9943 31.1424 14.0706L30.9991 14.5672C33.4524 14.5494 35.0757 15.1956 38.2902 17.196C38.1349 17.7095 38.0556 17.994 37.5639 18.6598C38.0863 18.7567 38.1837 19.1131 38.5765 19.6243C36.0746 22.3509 34.1071 23.1589 29.7456 23.5127C26.5029 23.4902 24.8199 23.2148 22.0582 22.2567C20.7027 21.7331 20.0896 21.3995 19.189 20.7519C18.0928 19.7679 17.4392 19.3188 16.2367 18.6146C18.0235 16.5887 19.4422 15.6795 23.5017 14.8888M29.8789 10.1607C29.8452 10.594 29.4668 10.6937 28.8872 10.8339C28.1774 10.8385 27.8221 10.8655 27.3781 10.6683C27.0244 10.5809 26.9099 10.3903 26.6073 10.1816M29.8789 10.1607L27.1082 9.63025C26.6578 9.71449 26.5897 9.85664 26.6073 10.1816M26.6073 10.1816L25.1123 11.2825M25.1123 11.2825L24.5726 11.1792M25.1123 11.2825C25.6973 11.4171 26.0272 11.5087 26.6536 11.9943M24.5726 11.1792C22.7439 12.9879 23.6914 14.902 24.3896 17.8637C25.6667 17.8508 26.3825 17.8194 27.6522 17.3479C27.2689 16.6375 27.0401 16.2448 27.0366 15.3806M24.5726 11.1792C23.4742 12.0495 23.5346 12.8551 23.3358 14.1481M26.8622 14.8232L27.0366 15.3806M27.0366 15.3806C27.5435 14.023 27.9946 13.2362 27.2781 12.067L26.6536 11.9943M25.2209 11.8273C25.8032 12.0103 26.1193 12.0562 26.6536 11.9943M23.5017 14.8888C20.9631 14.9109 19.8925 15.0396 19.6279 15.8116C19.0745 16.1942 18.6297 16.3626 17.4808 16.541C16.8989 15.6884 16.6533 15.1748 16.3354 14.1949C17.4151 14.6667 18.0461 14.843 19.2861 14.7598C19.3806 14.1948 19.4885 13.9415 19.8308 13.662C21.3251 13.3641 22.0745 13.5406 23.3358 14.1481M23.5017 14.8888L23.3358 14.1481" stroke="#525252" stroke-width="0.254364"/>
<path d="M31.1949 13.496C30.3539 14.0279 27.8807 14.4787 27.4797 14.2643L27.1716 15.0684C28.5484 15.1932 29.5491 15.3266 30.9718 14.5321C31.1808 14.1827 31.1565 13.9609 31.1949 13.496Z" fill="#696969" stroke="#525252" stroke-width="0.254364"/>
<path d="M31.8945 11.0712C32.0101 11.3488 32.2092 11.5618 32.5344 11.7485" stroke="#525252" stroke-width="0.254364"/>
<path d="M30.5391 10.5029C31.5671 11.9722 31.4038 12.8853 30.971 14.531" stroke="#525252" stroke-width="0.254364"/>
<path d="M21.0576 29.2786C21.8373 29.3822 22.2674 29.3724 22.9979 29.0027L23.7075 29.5701C23.3713 29.9182 23.0415 30.0056 22.127 29.9148C21.6049 29.8058 21.385 29.6476 21.0576 29.2786Z" fill="#A8A8A8"/>
<path d="M28.0963 29.3623C28.749 29.1351 29.0879 28.9926 29.454 28.6051L30.3373 29.3598C29.4752 29.6725 28.9802 29.5715 28.0963 29.3623Z" fill="#A8A8A8"/>
<path d="M21.0576 29.2786C21.8373 29.3822 22.2674 29.3724 22.9979 29.0027L23.7075 29.5701C23.3713 29.9182 23.0415 30.0056 22.127 29.9148C21.6049 29.8058 21.385 29.6476 21.0576 29.2786Z" stroke="#525252" stroke-width="0.254364"/>
<path d="M28.0963 29.3623C28.749 29.1351 29.0879 28.9926 29.454 28.6051L30.3373 29.3598C29.4752 29.6725 28.9802 29.5715 28.0963 29.3623Z" stroke="#525252" stroke-width="0.254364"/>
<path d="M27.3951 17.4519C26.4719 17.7708 25.9456 17.8344 25 17.8565C25.134 18.2683 25.4572 18.6012 25.5776 19.3677L25.7806 19.3262C25.576 19.3922 25.4671 19.4441 25.3674 19.7821C25.3206 19.9483 25.2762 20.0299 25.1771 20.1614C24.962 20.3608 24.9413 20.4301 25.0357 20.4998C25.3593 20.6019 25.5084 20.56 25.7044 20.2705C26.0714 20.9937 26.2759 21.4492 26.6702 21.0948C26.963 21.1907 27.0848 21.1875 27.1632 20.9942C27.4258 21.0131 27.5175 20.9489 27.5546 20.6666L27.5553 20.6662C27.7082 20.5846 27.7942 20.5386 27.5855 20.0722C27.7014 19.5716 27.6953 19.3012 27.127 18.8966C27.2902 18.4507 27.503 18.1957 27.3951 17.4519Z" fill="#A2A2A2"/>
<path d="M27.5546 20.6666C27.7079 20.5847 27.7945 20.5394 27.5855 20.0722C27.7014 19.5716 27.6953 19.3012 27.127 18.8966C27.2902 18.4507 27.503 18.1957 27.3951 17.4519C26.4719 17.7708 25.9456 17.8344 25 17.8565C25.134 18.2683 25.4572 18.6012 25.5776 19.3677L25.7806 19.3262C25.576 19.3922 25.4671 19.4441 25.3674 19.7821C25.3206 19.9483 25.2762 20.0299 25.1771 20.1614C24.962 20.3608 24.9413 20.4301 25.0357 20.4998C25.3593 20.6019 25.5084 20.56 25.7044 20.2705M27.5546 20.6666C27.4617 20.5701 27.4031 20.4608 27.2937 20.2246M27.5546 20.6666C27.5175 20.9489 27.4258 21.0131 27.1632 20.9942C27.0848 21.1875 26.963 21.1907 26.6702 21.0948C26.2759 21.4492 26.0714 20.9937 25.7044 20.2705M25.7044 20.2705C26.1759 20.2915 26.2575 20.1843 26.3079 19.9306M26.8751 20.4648C26.9699 20.5658 27.0177 20.6293 27.0907 20.7613M26.4981 20.5418L26.5978 20.862" stroke="#525252" stroke-width="0.254364"/>
<path d="M27.1436 9.63749L27.287 9.14093C26.4434 8.58623 26.0643 8.23877 26.3114 7.25886C25.8272 7.48611 25.657 7.36766 25.4793 6.85296C25.4264 6.30337 25.5281 6.07712 25.8992 5.79287C26.1009 5.78678 26.1668 5.8274 26.2338 5.94939C26.6897 6.59743 26.9402 6.73663 27.3684 6.22826C27.3684 6.22826 27.4235 6.25915 27.5545 6.10977C27.6854 5.96038 27.6974 5.85851 27.8887 5.74138C28.3481 5.46876 28.596 5.29462 28.9096 4.70389C31.2124 5.588 32.4023 5.93667 33.6384 5.84474L33.522 5.95766C33.3618 6.50716 33.1958 6.7934 32.7299 7.25472C32.4621 7.57335 32.2229 8.3906 32.3926 8.4231C32.48 8.62399 32.0166 9.35942 31.6426 9.57411C31.162 9.69153 30.8876 9.74978 30.3096 9.71961C30.1153 9.8769 29.9489 9.97894 29.7873 10.0203C29.7611 10.1378 29.6683 10.0806 29.7535 10.1372L27.1436 9.63749Z" fill="#A2A2A2"/>
<path d="M27.287 9.14093L27.1436 9.63749L29.7535 10.1372C29.6683 10.0806 29.7611 10.1378 29.7873 10.0203M27.287 9.14093C26.4434 8.58623 26.0643 8.23877 26.3114 7.25886C25.8272 7.48611 25.657 7.36766 25.4793 6.85296C25.4264 6.30337 25.5281 6.07712 25.8992 5.79287C26.1009 5.78678 26.1668 5.8274 26.2338 5.94939C26.6897 6.59743 26.9402 6.73663 27.3684 6.22826C27.3684 6.22826 27.4235 6.25915 27.5545 6.10977C27.6854 5.96038 27.6974 5.85851 27.8887 5.74138C28.3481 5.46876 28.596 5.29462 28.9096 4.70389M27.287 9.14093C27.78 9.38744 28.1273 9.48551 28.8196 9.61931C29.4395 10.1673 29.7644 10.1609 30.3096 9.71961C30.8876 9.74978 31.162 9.69153 31.6426 9.57411C32.0166 9.35942 32.48 8.62399 32.3926 8.4231C32.2229 8.3906 32.4621 7.57335 32.7299 7.25472C33.1958 6.7934 33.3618 6.50716 33.522 5.95766L33.6384 5.84474M28.9096 4.70389C28.6823 4.59321 28.6965 4.57549 28.6446 4.43822M28.9096 4.70389C31.2124 5.588 32.4023 5.93667 33.6384 5.84474M33.7081 5.83916C33.6848 5.84116 33.6616 5.84302 33.6384 5.84474" stroke="#525252" stroke-width="0.254364"/>
<path d="M28.7456 23.6695C28.4601 24.1121 28.2636 24.3387 27.7196 24.6283C28.4282 24.8942 28.7087 25.0802 29.09 25.4493L38.0146 23.6043C38.2223 23.0141 38.3475 22.6554 38.5619 22.0409L38.587 21.969C37.9765 21.6029 37.5171 21.6115 36.5456 21.9044L36.3324 22.6992L33.6295 22.1825L34.0084 21.5178L34.2294 21.13C33.6837 20.4413 33.2896 20.075 33.7994 19.1496C33.577 19.2426 33.4575 19.2613 33.276 19.0864C33.1697 18.8006 33.1594 18.7085 33.3199 18.2277C33.3789 17.9039 33.3466 17.768 33.8474 17.6528C34.0912 17.7098 34.0848 17.9266 34.2415 18.374C34.5352 18.5517 34.7976 18.5944 35.103 18.1946C35.2618 18.2158 35.3324 18.183 35.4095 18.0075C35.5786 18.0112 35.6723 17.997 35.8304 17.8299C36.4268 17.6392 36.6005 17.4684 36.9735 17.0164C38.8734 18.2715 39.9597 18.7812 41.3007 18.8202C41.7935 18.125 42.0292 17.7166 41.7652 16.6729C41.2939 15.8115 41.1382 15.32 39.4557 14.5543C38.1543 14.0852 37.4057 13.9922 36.0228 14.2668C34.571 14.9292 33.8898 15.4843 32.8382 16.699C30.9385 19.2597 30.064 20.7974 28.7456 23.6695Z" fill="#464545" stroke="#323232" stroke-width="0.254364"/>
<path d="M33.9436 21.6294L34.2738 21.05L36.6136 22.1336L36.3768 22.5491L33.9436 21.6294Z" fill="#696969"/>
<path d="M34.2751 21.0478L33.9436 21.6294L36.3768 22.5491L36.6136 22.1336L34.2422 21.0353" stroke="#323232" stroke-width="0.254364"/>
<path d="M21.5616 40.4814C21.1453 40.1893 21.4175 39.767 21.9248 39.0027C22.7826 39.7521 23.3793 39.9893 24.7816 39.8805C25.5925 40.6193 25.7996 41.0576 26.1414 41.8421C25.3461 42.4864 24.682 42.2491 23.566 42.0133C22.5079 41.5422 22.0974 41.1934 21.5616 40.4814Z" fill="#E5E5E5"/>
<path d="M27.3832 41.0658L27.8883 40.1794C28.8812 40.6695 29.5006 40.8453 30.9964 40.5462C31.9729 41.3801 32.2253 41.8591 32.6377 42.7151C32.08 43.0082 31.6038 42.9675 30.6976 42.8235L27.6093 41.7909C27.1202 41.6539 27.2138 41.4429 27.3832 41.0658Z" fill="#E5E5E5"/>
<path d="M21.5616 40.4814C21.1453 40.1893 21.4175 39.767 21.9248 39.0027C22.7826 39.7521 23.3793 39.9893 24.7816 39.8805C25.5925 40.6193 25.7996 41.0576 26.1414 41.8421C25.3461 42.4864 24.682 42.2491 23.566 42.0133C22.5079 41.5422 22.0974 41.1934 21.5616 40.4814Z" stroke="#323232" stroke-width="0.254364"/>
<path d="M27.3832 41.0658L27.8883 40.1794C28.8812 40.6695 29.5006 40.8453 30.9964 40.5462C31.9729 41.3801 32.2253 41.8591 32.6377 42.7151C32.08 43.0082 31.6038 42.9675 30.6976 42.8235L27.6093 41.7909C27.1202 41.6539 27.2138 41.4429 27.3832 41.0658Z" stroke="#323232" stroke-width="0.254364"/>
<path d="M23.3643 35.8442C23.9472 35.0265 24.5536 33.9261 25.6285 32.9631L33.0701 35.5737C32.2892 36.6104 31.7829 37.6889 31.1678 39.3322C29.9591 39.4266 29.3753 39.3039 28.5122 38.7325C28.6785 37.7003 28.7624 37.1114 29.1845 36.3607L29.8791 35.142L28.3995 34.5827C28.447 34.8037 28.2867 34.9341 28.0679 35.1644C26.5536 36.0096 26.3177 36.6975 25.2134 38.6303C23.9021 38.7948 23.3703 38.53 22.5697 37.7994C22.7106 37.0162 22.8431 36.5834 23.3643 35.8442Z" fill="#D8D4D4"/>
<path d="M26.0166 32.6384C24.6928 33.6706 24.0139 34.933 23.3643 35.8442C22.8431 36.5834 22.7106 37.0162 22.5697 37.7994C23.3703 38.53 23.9021 38.7948 25.2134 38.6303C26.3177 36.6975 26.5536 36.0096 28.0679 35.1644C28.2867 34.9341 28.447 34.8037 28.3995 34.5827L29.8791 35.142L29.1845 36.3607C28.7624 37.1114 28.6785 37.7003 28.5122 38.7325C29.3753 39.3039 29.9591 39.4266 31.1678 39.3322C31.7829 37.6889 32.2892 36.6104 33.0701 35.5737L25.6285 32.9631" stroke="#323232" stroke-width="0.254364"/>
<path d="M21.891 38.922C22.0966 38.4325 22.2257 38.1775 22.5225 37.814C23.3324 38.5441 23.8989 38.7359 25.1333 38.6325C25.4084 38.8014 25.1701 39.1873 24.8136 39.8246C23.3441 40.0401 22.7441 39.773 21.891 38.922Z" fill="#B6B6B6"/>
<path d="M27.8717 40.1388C28.0308 39.3761 28.0789 38.8267 28.4821 38.7872C29.5012 39.4071 30.0926 39.4805 31.1693 39.3315C30.9954 39.9314 31.044 40.0829 31.0442 40.4626C29.8056 40.7781 29.1106 40.7693 27.8717 40.1388Z" fill="#B6B6B6"/>
<path d="M21.891 38.922C22.0966 38.4325 22.2257 38.1775 22.5225 37.814C23.3324 38.5441 23.8989 38.7359 25.1333 38.6325C25.4084 38.8014 25.1701 39.1873 24.8136 39.8246C23.3441 40.0401 22.7441 39.773 21.891 38.922Z" stroke="#323232" stroke-width="0.254364"/>
<path d="M27.8717 40.1388C28.0308 39.3761 28.0789 38.8267 28.4821 38.7872C29.5012 39.4071 30.0926 39.4805 31.1693 39.3315C30.9954 39.9314 31.044 40.0829 31.0442 40.4626C29.8056 40.7781 29.1106 40.7693 27.8717 40.1388Z" stroke="#323232" stroke-width="0.254364"/>
<path d="M39.4875 27.2583L40.8582 25.5544C41.3217 25.736 41.6318 25.8412 42.5326 26.0526L42.4221 26.2465C42.563 26.0541 42.6585 25.9536 43.1008 25.8971C43.3177 25.8715 43.4304 25.8379 43.6204 25.7568C43.9273 25.5703 44.0182 25.5585 44.0755 25.6595C44.1046 25.9891 44.0095 26.1301 43.598 26.287C44.3732 26.7349 44.8693 26.9909 44.32 27.3342C44.3508 27.6328 44.3108 27.7518 44.0516 27.8051C43.9972 28.0648 43.8918 28.1468 43.536 28.1488L43.5353 28.1494C43.3904 28.2893 43.309 28.368 42.8007 28.1066C42.155 28.1592 41.8265 28.1203 41.4999 27.5139C40.907 27.6195 40.3642 27.4547 39.4875 27.2583Z" fill="#D8D4D4"/>
<path d="M43.536 28.1488C43.3907 28.2891 43.3097 28.3684 42.8007 28.1066C42.155 28.1592 41.8265 28.1203 41.4999 27.5139C40.907 27.6195 40.3642 27.4547 39.4875 27.2583L40.8582 25.5544C41.3217 25.736 41.6318 25.8412 42.5326 26.0526L42.4221 26.2465C42.563 26.0541 42.6585 25.9536 43.1008 25.8971C43.3177 25.8715 43.4304 25.8379 43.6204 25.7568C43.9273 25.5703 44.0182 25.5585 44.0755 25.6595C44.1046 25.9891 44.0095 26.1301 43.598 26.287M43.536 28.1488C43.4455 28.0459 43.3293 27.9752 43.073 27.8392M43.536 28.1488C43.8918 28.1468 43.9972 28.0648 44.0516 27.8051C44.3108 27.7518 44.3508 27.6328 44.32 27.3342C44.8693 26.9909 44.3732 26.7349 43.598 26.287M43.598 26.287C43.4846 26.7517 43.3295 26.8186 43.0047 26.8371M43.49 27.4581C43.5853 27.5634 43.6488 27.618 43.7885 27.7056M43.6952 27.098L44.0569 27.2347" stroke="#323232" stroke-width="0.254364"/>
<path d="M23.4106 31.4165C22.6118 30.2692 22.0994 29.7217 21.1248 28.8357C23.3784 27.1012 24.9844 26.4185 29.105 26.2634C26.652 25.8912 25.5862 25.8529 25.1288 26.5785C24.4949 26.8726 24.0221 26.9707 22.8677 26.9695C22.5303 26.0325 22.4282 25.4842 22.3786 24.4618C23.2958 25.098 23.8578 25.371 25.075 25.4809C25.3143 24.9345 25.4847 24.6996 25.8879 24.4752C27.4065 24.4114 28.0827 24.703 29.1393 25.5021C29.6699 24.249 29.8228 23.4395 31.1099 22.7457L31.6031 22.9321L33.3328 22.0709C33.401 21.7454 33.504 21.6148 33.9603 21.6011L36.4922 22.5581C36.4659 22.6344 36.4318 22.6983 36.39 22.7521C36.5945 22.6573 36.8458 22.7333 37.0393 23.0005C37.3929 22.7698 37.6333 22.9078 37.7233 22.9224C37.8133 22.9369 38.0662 23.5304 38.2322 23.9227C39.0879 24.6909 39.7211 25.043 41.1034 25.5465C40.5711 26.4818 40.1509 26.9044 39.4144 27.6687C38.273 27.0888 37.6091 26.707 36.6852 26.6372L36.4168 27.1081C38.7865 27.4713 40.1819 28.3651 42.7563 30.8508L42.7375 30.883C42.465 31.3488 42.3064 31.6199 41.6724 32.1917C42.1506 32.3691 42.1511 32.7381 42.3957 33.3067C39.2691 35.6261 37.1606 36.1231 32.8634 35.7973C29.7433 35.2715 28.1931 34.7367 25.7819 33.3565C24.6125 32.626 24.1089 32.1995 23.4106 31.4165Z" fill="#ACAAAA"/>
<path d="M36.4922 22.5581L36.237 22.8656C36.4549 22.6302 36.7937 22.6614 37.0393 23.0005C37.3929 22.7698 37.6333 22.9078 37.7233 22.9224C37.8133 22.9369 38.0662 23.5304 38.2322 23.9227C39.0879 24.6909 39.7211 25.043 41.1034 25.5465C40.5711 26.4818 40.1509 26.9044 39.4144 27.6687C38.273 27.0888 37.6091 26.707 36.6852 26.6372L36.4168 27.1081C38.7865 27.4713 40.1819 28.3651 42.7563 30.8508C42.472 31.3365 42.3209 31.6068 41.6724 32.1917C42.1506 32.3691 42.1511 32.7381 42.3957 33.3067C39.2691 35.6261 37.1606 36.1231 32.8634 35.7973C29.7433 35.2715 28.1931 34.7367 25.7819 33.3565C24.6125 32.626 24.1089 32.1995 23.4106 31.4165C22.6118 30.2692 22.0994 29.7217 21.1248 28.8357C23.3784 27.1012 24.9844 26.4185 29.105 26.2634M36.4922 22.5581C36.3461 22.9831 35.9552 23.0234 35.3596 23.0726C34.6743 22.967 34.3246 22.9387 33.9483 22.6739C33.6303 22.5322 33.5698 22.3251 33.3328 22.0709M36.4922 22.5581L33.9603 21.6011C33.504 21.6148 33.401 21.7454 33.3328 22.0709M33.3328 22.0709L31.6031 22.9321M31.6031 22.9321L31.1099 22.7457M31.6031 22.9321C32.1318 23.1566 32.4257 23.2988 32.9023 23.8782M31.1099 22.7457C28.8729 24.258 29.2844 26.3061 29.181 29.3557C30.4156 29.5412 31.1139 29.6211 32.4614 29.35C32.2781 28.585 32.1605 28.1595 32.3837 27.3007M31.1099 22.7457C29.8228 23.4395 29.6699 24.249 29.1393 25.5021M32.3617 26.72L32.3837 27.3007M32.3837 27.3007C33.2283 26.0312 33.8694 25.3198 33.4852 24.0475L32.9023 23.8782M31.5649 23.49C32.0783 23.7622 32.3709 23.8567 32.9023 23.8782M29.105 26.2634C26.652 25.8912 25.5862 25.8529 25.1288 26.5785C24.4949 26.8726 24.0221 26.9707 22.8677 26.9695C22.5303 26.0325 22.4282 25.4842 22.3786 24.4618C23.2958 25.098 23.8578 25.371 25.075 25.4809C25.3143 24.9345 25.4847 24.6996 25.8879 24.4752C27.4065 24.4114 28.0827 24.703 29.1393 25.5021M29.105 26.2634L29.1393 25.5021" stroke="#323232" stroke-width="0.254364"/>
<path d="M36.8858 26.0732C35.9356 26.4708 33.4333 26.5346 33.1029 26.2594L32.5952 27.0101C33.8896 27.3479 34.8193 27.6357 36.3991 27.0675C36.6922 26.753 36.727 26.5289 36.8858 26.0732Z" fill="#696969" stroke="#323232" stroke-width="0.254364"/>
<path d="M38.1973 23.7745C38.2359 24.0682 38.3719 24.3107 38.6365 24.5465" stroke="#323232" stroke-width="0.254364"/>
<path d="M37.0391 23.0015C37.6449 24.6202 37.2481 25.5017 36.3995 27.0689" stroke="#323232" stroke-width="0.254364"/>
<path d="M22.9763 40.1723C23.7008 40.3962 24.1179 40.4533 24.9191 40.1996L25.4543 40.8732C25.039 41.1667 24.6982 41.2023 23.8404 40.9702C23.3657 40.7808 23.1952 40.5896 22.9763 40.1723Z" fill="#A8A8A8"/>
<path d="M29.7396 41.3482C30.4284 41.224 30.7925 41.135 31.247 40.807L31.9006 41.6937C30.9876 41.8703 30.5369 41.6933 29.7396 41.3482Z" fill="#A8A8A8"/>
<path d="M22.9763 40.1723C23.7008 40.3962 24.1179 40.4533 24.9191 40.1996L25.4543 40.8732C25.039 41.1667 24.6982 41.2023 23.8404 40.9702C23.3657 40.7808 23.1952 40.5896 22.9763 40.1723Z" stroke="#323232" stroke-width="0.254364"/>
<path d="M29.7396 41.3482C30.4284 41.224 30.7925 41.135 31.247 40.807L31.9006 41.6937C30.9876 41.8703 30.5369 41.6933 29.7396 41.3482Z" stroke="#323232" stroke-width="0.254364"/>
<path d="M33.9931 21.6138L34.2615 21.1429C33.5937 20.461 33.3193 20.0571 33.8144 19.1223C33.2881 19.2728 33.155 19.1288 33.1187 18.59C33.2118 18.036 33.3691 17.8271 33.8014 17.6025C33.9974 17.6277 34.0502 17.6783 34.0829 17.8098C34.3525 18.5242 34.5575 18.7013 35.1035 18.2629C35.1035 18.2629 35.1486 18.3022 35.314 18.1741C35.4793 18.0461 35.5177 17.9468 35.7327 17.8602C36.2471 17.6608 36.5317 17.5263 36.9889 16.9884C38.977 18.2239 40.0327 18.7549 41.2484 18.8555L41.1066 18.9496C40.808 19.4704 40.573 19.7289 40.0029 20.1147C39.6613 20.3896 39.2164 21.164 39.3715 21.2227C39.4031 21.4357 38.7635 22.0942 38.3468 22.2493C37.8527 22.2913 37.5729 22.3065 37.0236 22.1868C36.795 22.3129 36.6079 22.3884 36.4412 22.4044C36.3852 22.517 36.3107 22.4457 36.3781 22.5152L33.9931 21.6138Z" fill="#D8D4D4"/>
<path d="M34.2615 21.1429L33.9931 21.6138L36.3781 22.5152C36.3107 22.4457 36.3852 22.517 36.4412 22.4044M34.2615 21.1429C33.5937 20.461 33.3193 20.0571 33.8144 19.1223C33.2881 19.2728 33.155 19.1288 33.1187 18.59C33.2118 18.036 33.3691 17.8271 33.8014 17.6025C33.9974 17.6277 34.0502 17.6783 34.0829 17.8098C34.3525 18.5242 34.5575 18.7013 35.1035 18.2629C35.1035 18.2629 35.1486 18.3022 35.314 18.1741C35.4793 18.0461 35.5177 17.9468 35.7327 17.8602C36.2471 17.6608 36.5317 17.5263 36.9889 16.9884M34.2615 21.1429C34.6722 21.4642 34.9813 21.6155 35.6136 21.8559C36.0674 22.4964 36.3823 22.5405 37.0236 22.1868C37.5729 22.3065 37.8527 22.2913 38.3468 22.2493C38.7635 22.0942 39.4031 21.4357 39.3715 21.2227C39.2164 21.164 39.6613 20.3896 40.0029 20.1147C40.573 19.7289 40.808 19.4704 41.1066 18.9496L41.2484 18.8555M36.9889 16.9884C36.7988 16.8431 36.8171 16.8278 36.803 16.6834M36.9889 16.9884C38.977 18.2239 40.0327 18.7549 41.2484 18.8555M41.317 18.8608C41.2941 18.8592 41.2712 18.8574 41.2484 18.8555" stroke="#323232" stroke-width="0.254364"/>
<path d="M42.4133 26.521L41.1829 26.8945C40.9958 26.9131 40.7404 26.9887 41.2156 27.1429" stroke="#9A9A9A" stroke-width="0.254364"/>
<path d="M10.1659 33.1748C10.3441 33.6537 10.3982 33.9281 10.2513 34.4489C11.0076 34.2258 11.3778 34.1946 11.9833 34.2346L16.9453 27.7493C16.5799 27.2108 16.3571 26.8842 15.9752 26.3244L15.931 26.2597C15.1592 26.3549 14.8279 26.6276 14.3686 27.3987L14.9095 28.0849L12.462 29.2879L12.1575 28.5975L11.9799 28.1947C10.9724 28.024 10.36 27.9934 9.92319 27.0425C9.84081 27.2374 9.7691 27.32 9.48156 27.3016C9.15221 27.161 9.0637 27.1018 8.75972 26.6683C8.51882 26.4049 8.37564 26.3274 8.64377 25.9552C8.87368 25.8541 9.05945 26.0112 9.56795 26.237C9.94072 26.1923 10.1718 26.0703 10.0459 25.6101C10.1816 25.5329 10.2049 25.4687 10.1075 25.2997C10.2355 25.2042 10.2921 25.1398 10.262 24.9298C10.5343 24.4487 10.5124 24.227 10.3905 23.6905C12.8943 23.4763 14.1434 23.2066 15.1667 22.456C14.9195 21.678 14.7346 21.2521 13.6231 20.6665C12.5188 20.3304 11.9723 20.0728 10.0587 20.5073C8.68667 20.9305 8.0529 21.2992 7.27401 22.2961C6.7851 23.6075 6.7702 24.3958 7.06156 25.8658C7.90975 28.7808 8.61546 30.3767 10.1659 33.1748Z" fill="#E1E1E1" stroke="#3F3F3F" stroke-width="0.254364"/>
<path d="M12.2078 28.7126L11.9424 28.1108L14.6201 27.5199L14.8104 27.9514L12.2078 28.7126Z" fill="#696969"/>
<path d="M11.9414 28.1085L12.2078 28.7126L14.8104 27.9514L14.6201 27.5199L11.9062 28.1188" stroke="#3F3F3F" stroke-width="0.254364"/>
<path d="M19.6345 49.2433C19.0709 49.2781 18.9007 48.8213 18.6035 47.9859C19.8944 48.0185 20.543 47.84 21.4817 46.9492C22.7288 47.0015 23.2665 47.1916 24.2077 47.5484C24.1871 48.4661 23.4888 48.6835 22.4586 49.1643C21.2643 49.4449 20.6551 49.4363 19.6345 49.2433Z" fill="#E5E5E5"/>
<path d="M24.4417 46.2783L24.0357 45.3578C25.1986 45.1284 25.8098 44.8935 26.6504 43.8136C28.1031 43.8371 28.71 44.0297 29.7662 44.3962C29.6123 44.9274 29.2252 45.1749 28.4304 45.5989L25.2455 46.6603C24.7644 46.8472 24.648 46.6436 24.4417 46.2783Z" fill="#E5E5E5"/>
<path d="M19.6345 49.2433C19.0709 49.2781 18.9007 48.8213 18.6035 47.9859C19.8944 48.0185 20.543 47.84 21.4817 46.9492C22.7288 47.0015 23.2665 47.1916 24.2077 47.5484C24.1871 48.4661 23.4888 48.6835 22.4586 49.1643C21.2643 49.4449 20.6551 49.4363 19.6345 49.2433Z" stroke="#3F3F3F" stroke-width="0.254364"/>
<path d="M24.4417 46.2783L24.0357 45.3578C25.1986 45.1284 25.8098 44.8935 26.6504 43.8136C28.1031 43.8371 28.71 44.0297 29.7662 44.3962C29.6123 44.9274 29.2252 45.1749 28.4304 45.5989L25.2455 46.6603C24.7644 46.8472 24.648 46.6436 24.4417 46.2783Z" stroke="#3F3F3F" stroke-width="0.254364"/>
<path d="M16.8923 44.9142C16.604 43.9972 16.0847 42.8664 16.0315 41.5609L23.8135 39.09C24.1482 40.277 24.7222 41.3342 25.7119 42.8543C24.9034 43.6225 24.3649 43.8746 23.2264 43.971C22.4424 43.1439 21.987 42.6783 21.6389 41.902L21.0807 40.6363L19.4981 41.0992C19.7272 41.228 19.7235 41.4133 19.7645 41.7033C19.39 43.1804 19.8202 43.8042 20.7035 45.8131C19.8808 46.6906 19.2559 46.8118 18.0237 46.7593C17.4397 46.1232 17.1572 45.7399 16.8923 44.9142Z" fill="#A2A2A2"/>
<path d="M16.0326 41.1059C15.9628 42.6047 16.571 43.8923 16.8923 44.9142C17.1572 45.7399 17.4397 46.1232 18.0237 46.7593C19.2559 46.8118 19.8808 46.6906 20.7035 45.8131C19.8202 43.8042 19.39 43.1804 19.7645 41.7033C19.7235 41.4133 19.7272 41.228 19.4981 41.0992L21.0807 40.6363L21.6389 41.902C21.987 42.6783 22.4424 43.1439 23.2264 43.971C24.3649 43.8746 24.9034 43.6225 25.7119 42.8543C24.7222 41.3342 24.1482 40.277 23.8135 39.09L16.0315 41.5609" stroke="#3F3F3F" stroke-width="0.254364"/>
<path d="M18.5082 47.9483C18.2299 47.4825 18.1012 47.2272 18.0007 46.7976C19.2395 46.8443 19.8258 46.6513 20.6454 45.8617C20.9967 45.8216 21.1598 46.2331 21.4567 46.8911C20.5621 47.8965 19.885 48.0556 18.5082 47.9483Z" fill="#B6B6B6"/>
<path d="M23.9883 45.3387C23.4358 44.7065 22.9887 44.2897 23.2514 44.0278C24.5475 43.8751 25.0482 43.5838 25.7115 42.8536C26.1101 43.379 26.2792 43.4581 26.6127 43.7267C25.9763 44.6688 25.456 45.066 23.9883 45.3387Z" fill="#B6B6B6"/>
<path d="M18.5082 47.9483C18.2299 47.4825 18.1012 47.2272 18.0007 46.7976C19.2395 46.8443 19.8258 46.6513 20.6454 45.8617C20.9967 45.8216 21.1598 46.2331 21.4567 46.8911C20.5621 47.8965 19.885 48.0556 18.5082 47.9483Z" stroke="#3F3F3F" stroke-width="0.254364"/>
<path d="M23.9883 45.3387C23.4358 44.7065 22.9887 44.2897 23.2514 44.0278C24.5475 43.8751 25.0482 43.5838 25.7115 42.8536C26.1101 43.379 26.2792 43.4581 26.6127 43.7267C25.9763 44.6688 25.456 45.066 23.9883 45.3387Z" stroke="#3F3F3F" stroke-width="0.254364"/>
<path d="M21.2416 29.4813L20.7559 27.4798C21.2573 27.3393 21.5783 27.2338 22.4285 26.8607L22.5173 27.0621C22.4522 26.8441 22.4345 26.7175 22.711 26.4208C22.8485 26.2768 22.9022 26.1876 22.971 26.02C23.0336 25.7099 23.0902 25.6487 23.2212 25.687C23.5322 25.9034 23.586 26.0584 23.4202 26.4083C24.3854 26.2754 24.9762 26.1687 24.8726 26.7304C25.1577 26.9239 25.2327 27.0314 25.0883 27.2195C25.2763 27.4349 25.2706 27.5542 25.0099 27.762L25.01 27.7629C25.026 27.946 25.035 28.049 24.4305 28.1589C24.0005 28.5709 23.724 28.7339 22.9505 28.4943C22.6059 28.9131 22.0608 29.1115 21.2416 29.4813Z" fill="#A2A2A2"/>
<path d="M25.0099 27.762C25.026 27.9457 25.036 28.0488 24.4305 28.1589C24.0005 28.5709 23.724 28.7339 22.9505 28.4943C22.6059 28.9131 22.0608 29.1115 21.2416 29.4813L20.7559 27.4798C21.2573 27.3393 21.5783 27.2338 22.4285 26.8607L22.5173 27.0621C22.4522 26.8441 22.4345 26.7175 22.711 26.4208C22.8485 26.2768 22.9022 26.1876 22.971 26.02C23.0336 25.7099 23.0902 25.6487 23.2212 25.687C23.5322 25.9034 23.586 26.0584 23.4202 26.4083M25.0099 27.762C24.8528 27.7418 24.705 27.7591 24.3964 27.8116M25.0099 27.762C25.2706 27.5542 25.2763 27.4349 25.0883 27.2195C25.2327 27.0314 25.1577 26.9239 24.8726 26.7304C24.9762 26.1687 24.3854 26.2754 23.4202 26.4083M23.4202 26.4083C23.7448 26.803 23.6892 26.9404 23.4658 27.1419M24.3693 27.2999C24.5321 27.3191 24.6269 27.3209 24.8069 27.3018M24.2044 26.9259L24.5912 26.8127" stroke="#3F3F3F" stroke-width="0.254364"/>
<path d="M13.0366 41.754C11.4396 41.4055 10.5808 41.3153 9.08358 41.2538C9.22223 38.7182 9.80712 37.303 12.7102 34.8018C10.574 35.962 9.75419 36.5533 10.0542 37.3324C9.84496 37.9084 9.58236 38.2523 8.72994 38.9214C7.65794 38.454 7.10107 38.1252 6.16637 37.4302C7.40169 37.3483 8.05607 37.2153 9.05031 36.5868C8.74685 36.0611 8.66622 35.796 8.76654 35.4031C9.8306 34.4766 10.5855 34.2906 12.0667 34.243C11.3574 33.0481 10.7591 32.3864 11.099 31.1484L11.6265 30.9941L12.1459 29.3807C11.9103 29.1107 11.8715 28.9585 12.196 28.684L14.9041 27.892C14.9518 27.9612 14.9828 28.0263 14.9992 28.0886C15.0667 27.9028 15.3189 27.8108 15.6963 27.8876C15.7544 27.519 16.053 27.4773 16.1321 27.4353C16.2113 27.3934 16.9192 27.6667 17.3862 27.848C18.6921 27.8952 19.4685 27.7769 20.9303 27.3311C21.3592 28.302 21.4205 28.8449 21.5486 29.8134C20.1974 30.0653 19.3723 30.1804 18.6295 30.6672L18.8452 31.1562C20.9122 30.0381 22.7265 29.8608 26.8087 30.1262L26.8231 30.1599C27.0313 30.6477 27.1525 30.9316 27.1871 31.7043C27.6956 31.5524 28.0202 31.8133 28.7001 32.0738C28.4313 35.53 27.3127 37.1054 23.8569 39.3688C21.0937 40.8074 19.4806 41.3285 16.4897 41.7509C14.9855 41.9125 14.2395 41.9029 13.0366 41.754Z" fill="#D9D9D9"/>
<path d="M14.9041 27.892L14.986 28.2577C14.94 27.9646 15.2172 27.7901 15.6963 27.8876C15.7544 27.519 16.053 27.4773 16.1321 27.4353C16.2113 27.3934 16.9192 27.6667 17.3862 27.848C18.6921 27.8952 19.4685 27.7769 20.9303 27.3311C21.3592 28.302 21.4205 28.8449 21.5486 29.8134C20.1974 30.0653 19.3723 30.1804 18.6295 30.6672L18.8452 31.1562C20.9122 30.0381 22.7265 29.8608 26.8087 30.1262C27.0257 30.635 27.1517 30.914 27.1871 31.7043C27.6956 31.5524 28.0202 31.8133 28.7001 32.0738C28.4313 35.53 27.3127 37.1054 23.8569 39.3688C21.0937 40.8074 19.4806 41.3285 16.4897 41.7509C14.9855 41.9125 14.2395 41.9029 13.0366 41.754C11.4396 41.4055 10.5808 41.3153 9.08358 41.2538C9.22223 38.7182 9.80712 37.303 12.7102 34.8018M14.9041 27.892C15.1697 28.2776 14.9167 28.5329 14.5207 28.9134C13.9224 29.2364 13.6396 29.4194 13.1295 29.4503C12.7704 29.5345 12.544 29.4231 12.1459 29.3807M14.9041 27.892L12.196 28.684C11.8715 28.9585 11.9103 29.1107 12.1459 29.3807M12.1459 29.3807L11.6265 30.9941M11.6265 30.9941L11.099 31.1484M11.6265 30.9941C12.2136 30.8462 12.5554 30.7762 13.4158 30.9098M11.099 31.1484C10.7774 33.5171 12.88 34.7279 15.4826 36.9464C16.5561 36.3612 17.1413 36.0125 17.8971 35.0386C17.0899 34.6035 16.6294 34.3706 16.0397 33.6331M11.099 31.1484C10.7591 32.3864 11.3574 33.0481 12.0667 34.243M15.5134 33.235L16.0397 33.6331M16.0397 33.6331C15.5475 32.2445 15.3955 31.3689 13.9945 30.6913L13.4158 30.9098M12.0884 31.4111C12.7061 31.3058 13.0051 31.2029 13.4158 30.9098M12.7102 34.8018C10.574 35.962 9.75419 36.5533 10.0542 37.3324C9.84496 37.9084 9.58236 38.2523 8.72994 38.9214C7.65794 38.454 7.10107 38.1252 6.16637 37.4302C7.40169 37.3483 8.05607 37.2153 9.05031 36.5868C8.74685 36.0611 8.66622 35.796 8.76654 35.4031C9.8306 34.4766 10.5855 34.2906 12.0667 34.243M12.7102 34.8018L12.0667 34.243" stroke="#3F3F3F" stroke-width="0.254364"/>
<path d="M18.2825 30.1504C17.931 30.9833 16.1413 32.4806 15.6559 32.4776L15.9408 33.3036C17.1922 32.7914 18.1308 32.4556 18.7969 31.1367C18.7368 30.7439 18.5657 30.5651 18.2825 30.1504Z" fill="#696969" stroke="#3F3F3F" stroke-width="0.254364"/>
<path d="M17.2305 27.7636C17.5169 27.9491 17.8302 28.0417 18.2326 28.0551" stroke="#3F3F3F" stroke-width="0.254364"/>
<path d="M15.6953 27.8882C17.5641 28.6824 18.0457 29.5366 18.7964 31.1384" stroke="#3F3F3F" stroke-width="0.254364"/>
<path d="M20.4076 48.2051C21.1386 47.9431 21.4965 47.7414 21.8645 47.0969L22.851 47.2631C22.8025 47.7118 22.5824 47.9348 21.7458 48.2683C21.2293 48.4098 20.9356 48.3735 20.4076 48.2051Z" fill="#A8A8A8"/>
<path d="M26.429 45.1123C26.8279 44.6246 27.0183 44.3503 27.0655 43.8544L28.3264 44.1027C27.8081 44.7576 27.3202 44.8938 26.429 45.1123Z" fill="#A8A8A8"/>
<path d="M20.4076 48.2051C21.1386 47.9431 21.4965 47.7414 21.8645 47.0969L22.851 47.2631C22.8025 47.7118 22.5824 47.9348 21.7458 48.2683C21.2293 48.4098 20.9356 48.3735 20.4076 48.2051Z" stroke="#3F3F3F" stroke-width="0.254364"/>
<path d="M26.429 45.1123C26.8279 44.6246 27.0183 44.3503 27.0655 43.8544L28.3264 44.1027C27.8081 44.7576 27.3202 44.8938 26.429 45.1123Z" stroke="#3F3F3F" stroke-width="0.254364"/>
<path d="M17.7496 35.2434C17.1838 35.9311 16.781 36.2221 15.9946 36.6661C16.3878 36.958 16.8878 37.0973 17.5102 37.6986L17.6541 37.5719C17.5255 37.7203 17.4685 37.8136 17.6134 38.1474C17.6867 38.3106 17.7044 38.4003 17.7097 38.5574C17.6629 38.8245 17.6924 38.8931 17.8197 38.9103C18.1632 38.8521 18.2611 38.7492 18.2306 38.4135C19.0327 38.867 19.5153 39.1645 19.6088 38.6842C19.922 38.6346 20.023 38.577 19.9582 38.3765C20.1936 38.2746 20.2277 38.1786 20.0675 37.9205L20.0678 37.9199C20.142 37.7813 20.1836 37.7034 19.69 37.3983C19.4484 36.9182 19.2597 36.6897 18.5034 36.5992C18.3388 36.1446 18.346 35.8309 17.7496 35.2434Z" fill="#A2A2A2"/>
<path d="M20.0675 37.9205C20.1418 37.7815 20.1844 37.7038 19.69 37.3983C19.4484 36.9182 19.2597 36.6897 18.5034 36.5992C18.3388 36.1446 18.346 35.8309 17.7496 35.2434C17.1838 35.9311 16.781 36.2221 15.9946 36.6661C16.3878 36.958 16.8878 37.0973 17.5102 37.6986L17.6541 37.5719C17.5255 37.7203 17.4685 37.8136 17.6134 38.1474C17.6867 38.3106 17.7044 38.4003 17.7097 38.5574C17.6629 38.8245 17.6924 38.8931 17.8197 38.9103C18.1632 38.8521 18.2611 38.7492 18.2306 38.4135M20.0675 37.9205C19.9232 37.8797 19.7994 37.8127 19.5463 37.6598M20.0675 37.9205C20.2277 38.1786 20.1936 38.2746 19.9582 38.3765C20.023 38.577 19.922 38.6346 19.6088 38.6842C19.5153 39.1645 19.0327 38.867 18.2306 38.4135M18.2306 38.4135C18.6445 38.2196 18.6409 38.0912 18.5113 37.8516M19.3546 38.0535C19.5036 38.0971 19.5872 38.13 19.7387 38.21M19.0875 38.2887L19.3893 38.5177" stroke="#3F3F3F" stroke-width="0.254364"/>
<path d="M12.2299 28.6735L12.0142 28.1844C10.9227 28.0894 10.3656 27.9627 9.90966 27.0137C9.65367 27.4257 9.42896 27.4009 8.92891 27.0407C8.51097 26.5945 8.44348 26.3554 8.565 25.9455C8.73175 25.8496 8.81514 25.8547 8.95476 25.9289C9.78112 26.2781 10.0879 26.2845 10.1056 25.6573C10.1056 25.6573 10.1733 25.6589 10.1828 25.4723C10.1923 25.2857 10.1334 25.1932 10.2159 25.0071C10.4202 24.5674 10.512 24.307 10.3766 23.6609C12.9283 23.3817 14.1734 23.1448 15.1585 22.5105L15.1365 22.6594C15.3738 23.2013 15.4275 23.5207 15.3459 24.1246C15.3354 24.5174 15.6875 25.3238 15.8534 25.2753C16.0639 25.4077 16.1705 26.2449 15.9994 26.5966C15.6718 26.9131 15.4789 27.0863 14.9685 27.3203C14.9107 27.5422 14.839 27.7042 14.7301 27.8123C14.7877 27.9245 14.6702 27.9173 14.7809 27.9274L12.2299 28.6735Z" fill="#A2A2A2"/>
<path d="M12.0142 28.1844L12.2299 28.6735L14.7809 27.9274C14.6702 27.9173 14.7877 27.9245 14.7301 27.8123M12.0142 28.1844C10.9227 28.0894 10.3656 27.9627 9.90966 27.0137C9.65367 27.4257 9.42896 27.4009 8.92891 27.0407C8.51097 26.5945 8.44348 26.3554 8.565 25.9455C8.73175 25.8496 8.81514 25.8547 8.95476 25.9289C9.78112 26.2781 10.0879 26.2845 10.1056 25.6573C10.1056 25.6573 10.1733 25.6589 10.1828 25.4723C10.1923 25.2857 10.1334 25.1932 10.2159 25.0071C10.4202 24.5674 10.512 24.307 10.3766 23.6609M12.0142 28.1844C12.5994 28.1735 12.9603 28.1012 13.6379 27.9044C14.5352 28.0943 14.8062 27.9428 14.9685 27.3203C15.4789 27.0863 15.6718 26.9131 15.9994 26.5966C16.1705 26.2449 16.0639 25.4077 15.8534 25.2753C15.6875 25.3238 15.3354 24.5174 15.3459 24.1246C15.4275 23.5207 15.3738 23.2013 15.1365 22.6594L15.1585 22.5105M10.3766 23.6609C10.1088 23.6685 10.1088 23.647 9.97163 23.5529M10.3766 23.6609C12.9283 23.3817 14.1734 23.1448 15.1585 22.5105M15.2137 22.4744C15.1954 22.4866 15.1769 22.4986 15.1585 22.5105" stroke="#3F3F3F" stroke-width="0.254364"/>
</svg>
