<svg width="192" height="188" viewBox="0 0 192 188" fill="none" xmlns="http://www.w3.org/2000/svg">
<path d="M53.5865 80.3988C58.1966 77.5562 66.4463 68.7655 75.5865 68.8988C75.5865 66.7321 77.4865 61.3988 85.0865 57.3988C94.5865 52.3988 115.106 49.4611 113.586 49.8988C108.916 51.2438 123.202 68.5332 131.086 66.3988C134.067 65.5918 140.962 69.7374 144.086 75.8988C152.018 82.571 153.757 87.7281 153.086 98.8988C154.208 104.768 143.748 116.264 136.586 114.399C131.121 112.975 106.55 111.512 106.586 119.899C106.6 123.053 92.4089 130.572 88.5865 129.399C74.1417 124.964 54.6648 120.282 60.5865 106.399C52.1267 100.639 46.2715 84.9092 53.5865 80.3988Z" fill="#710303"/>
<path d="M27.5317 120.301C27.9009 128.348 30.6152 128.565 37.762 124.98L27.5317 120.301Z" fill="#D9D9D9" stroke="#ADADAD" stroke-width="2"/>
<path d="M74.3851 143.461C81.9608 146.154 84.0655 144.029 85.8284 136.889L74.3851 143.461Z" fill="#D9D9D9" stroke="#ADADAD" stroke-width="2"/>
<path d="M162.278 67.9941C166.832 68.1604 168.165 69.3725 167.216 74.5817L162.278 67.9941Z" fill="#DFDFDF" stroke="#B9B9B9" stroke-width="2"/>
<path d="M61.3726 58.9609C57.7363 56.892 57.2163 55.1391 60.4284 50.3997L61.3726 58.9609Z" fill="#DFDFDF" stroke="#ADADAD" stroke-width="2"/>
<path d="M123.432 68.3033C137.509 58.8247 145.706 53.5301 138.443 42.6451C126.239 38.0285 121.518 42.9197 116.04 53.1172C115.081 54.9022 114.099 56.8497 113.049 58.9372L123.432 68.3033Z" fill="#DFDFDF" stroke="#B9B9B9" stroke-width="2"/>
<path d="M131.077 63.087C127.787 57.1974 118.37 50.2212 116.693 51.7469C120.659 42.2003 130.63 36.7637 138.577 42.5443C145.598 47.6504 141.843 56.6571 131.077 63.087Z" fill="#434343" stroke="#363636" stroke-width="2"/>
<path d="M42.055 91.7501C56.0128 85.6094 64.3833 85.7272 79.102 84.5574L102.59 104.679C93.9091 110.155 89.4804 113.701 84.6962 123.409C81.0931 128.719 82.0787 131.504 87.9863 136.205L72.1046 144.167C64.6221 134.64 63.1886 129.671 64.1954 121.285C68.9874 112.373 72.3493 109.759 78.4873 105.598C67.8612 100.718 62.2025 101.454 52.3433 105.474L40.0207 126.031L25.0788 118.71C29.4171 107.333 31.2067 100.717 42.055 91.7501Z" fill="#4D4D4D" stroke="#403F3F" stroke-width="2"/>
<path d="M85.6375 42.271C97.5746 45.5884 103.757 48.7192 112.966 58.8274L122.832 68.0657L145.933 78.7023L161.535 67.0058L168.12 75.7893L142.833 94.7457C135.24 87.2457 130.853 83.2377 118.662 82.6818C109.771 90.525 106.327 95.4335 102.618 104.999L78.8011 84.4386C87.4382 78.4724 91.2616 74.2842 96.6122 65.5988C94.7624 56.0219 90.8123 54.9113 81.3552 56.4568C71.3727 61.2863 68.2573 61.2871 62.0106 62.0407L59.9009 48.0162C71.3706 49.3407 76.0875 49.493 85.6375 42.271Z" fill="#AEABAB" stroke="#868686" stroke-width="2"/>
</svg>
