<svg width="82" height="116" viewBox="0 0 82 116" fill="none" xmlns="http://www.w3.org/2000/svg">
<rect x="0.63591" y="0.63591" width="80.1247" height="114.728" fill="#5C5C5C" stroke="#363636" stroke-width="1.27182"/>
<rect x="5.65234" y="4.60315" width="69.8088" height="105.873" fill="#434343"/>
<path d="M36.9245 18.5303C36.9245 25.5874 30.4346 31.386 22.3269 31.386C14.2191 31.386 7.7292 25.5874 7.7292 18.5303C7.7292 11.4732 14.2191 5.67451 22.3269 5.67451C30.4346 5.67451 36.9245 11.4732 36.9245 18.5303Z" fill="#D9D9D9" stroke="#505050" stroke-width="0.763092"/>
<path d="M34.6122 11.444L7.61328 19.1917C7.86742 21.2081 8.09306 22.2273 8.99784 23.9805L36.7346 15.8434C36.1801 13.8063 35.6949 12.8323 34.6122 11.444Z" fill="#787878" stroke="#565454" stroke-width="0.254364"/>
<path d="M18.582 30.4835C30.7402 28.8615 32.6158 27.0185 36.4739 19.0454C36.4921 20.5307 35.9501 21.6431 34.6708 24.7002C32.4288 27.6758 30.9661 28.7248 27.8747 29.9694C24.7939 30.9345 22.0687 31.3635 18.582 30.4835Z" fill="#969696" fill-opacity="0.3"/>
<rect x="0.0403126" y="0.158033" width="10.8828" height="9.83153" transform="matrix(0.902062 0.431606 -0.585094 0.810966 12.78 86.3219)" fill="#575656"/>
<rect x="0.0403126" y="0.158033" width="10.8828" height="9.83153" transform="matrix(0.902062 0.431606 -0.585094 0.810966 12.78 86.3219)" fill="#575656"/>
<rect x="0.0403126" y="0.158033" width="10.8828" height="9.83153" transform="matrix(0.902062 0.431606 -0.585094 0.810966 12.78 86.3219)" fill="#575656"/>
<rect x="0.0403126" y="0.158033" width="10.8828" height="9.83153" transform="matrix(0.902062 0.431606 -0.585094 0.810966 12.78 86.3219)" fill="#575656"/>
<rect x="0.0403126" y="0.158033" width="10.8828" height="9.83153" transform="matrix(0.902062 0.431606 -0.585094 0.810966 12.78 86.3219)" stroke="#959595" stroke-width="0.254364"/>
<rect x="0.0616552" y="0.154279" width="11.0963" height="9.59076" transform="matrix(0.945532 0.325529 -0.460753 0.887529 23.8869 91.1867)" fill="#808080" stroke="#959595" stroke-width="0.254364"/>
<rect x="0.0616552" y="0.154279" width="8.40025" height="7.72228" transform="matrix(0.945532 0.325529 -0.460753 0.887529 16.7502 97.7649)" fill="#696969" stroke="#959595" stroke-width="0.254364"/>
<rect x="0.0616552" y="0.154279" width="11.0963" height="9.59076" transform="matrix(0.945532 0.325529 -0.460753 0.887529 19.6096 84.7649)" fill="#9D9D9D" stroke="#959595" stroke-width="0.254364"/>
<rect width="16.8527" height="21.9307" transform="matrix(0.960432 -0.278515 0.400646 0.916233 46.8145 85.1794)" fill="#B7B5B5"/>
<rect width="16.3341" height="21.3077" transform="matrix(0.960432 -0.278515 0.400646 0.916233 46.8145 85.1794)" fill="#D9D9D9"/>
<rect width="11.5376" height="7.601" transform="matrix(0.960432 -0.278516 0.400646 0.916233 53.6992 95.7903)" fill="#9D9D9D"/>
<rect width="16.8527" height="21.9307" transform="matrix(0.960432 -0.278515 0.400646 0.916233 46.8145 85.1794)" fill="#B7B5B5"/>
<rect width="16.3341" height="21.3077" transform="matrix(0.960432 -0.278515 0.400646 0.916233 46.8145 85.1794)" fill="#D9D9D9"/>
<rect width="11.5376" height="7.601" transform="matrix(0.960432 -0.278516 0.400646 0.916233 53.6992 95.7903)" fill="#9D9D9D"/>
<path d="M51.2366 86.1484C51.5091 86.0191 51.7248 85.1062 52.1713 85.3628C52.5311 85.5695 52.9987 85.679 53.4087 85.6615C53.8138 85.6441 54.0572 85.1797 54.3463 84.9536C54.7823 84.6125 54.9975 84.9394 55.4982 84.9054C55.8228 84.8834 56.1068 84.6718 56.4064 84.5849C57.0809 84.3893 57.7835 84.3037 58.481 84.1691C58.9351 84.0815 59.2382 83.6012 59.7653 83.6752" stroke="#9A9A9A" stroke-width="0.763092" stroke-linecap="round"/>
<path d="M52.9061 86.7577C52.6528 86.8312 53.3917 86.5598 53.5977 86.4143C53.7793 86.2859 53.9599 86.1555 54.2049 86.1274C54.8506 86.0532 55.4224 85.7707 56.04 85.5917C56.3254 85.5089 56.6597 85.5485 56.9629 85.5456C57.3494 85.5418 57.6625 85.3032 58.0399 85.2547C58.3431 85.2157 58.3651 85.0596 58.7083 85.2681" stroke="#9A9A9A" stroke-width="0.763092" stroke-linecap="round"/>
<path d="M51.6126 88.2907C51.9934 88.1643 52.2396 87.915 52.6888 87.9C53.0757 87.8871 53.4631 87.9234 53.8595 87.9215C54.4297 87.9187 54.9153 87.2619 55.3158 86.9739C55.6369 86.7429 55.9241 86.7358 56.3278 86.7661C56.7937 86.8012 57.2664 86.5869 57.6885 86.4645C57.9355 86.3928 58.181 86.3102 58.4334 86.252C58.6783 86.1955 58.8314 86.279 59.0707 86.2923C59.8832 86.3376 60.484 85.6538 61.1747 85.4535" stroke="#9A9A9A" stroke-width="0.763092" stroke-linecap="round"/>
<rect width="16.4006" height="25.817" transform="matrix(0.749589 0.661904 -0.799605 0.600526 46.9277 66.2856)" fill="#B7B5B5"/>
<rect width="15.896" height="25.0835" transform="matrix(0.749589 0.661904 -0.799605 0.600526 46.9277 66.2856)" fill="#D9D9D9"/>
<rect width="11.2281" height="8.94793" transform="matrix(0.749589 0.661904 -0.799605 0.600526 36.9453 76.2546)" fill="#9D9D9D"/>
<rect width="16.4006" height="25.817" transform="matrix(0.749589 0.661904 -0.799605 0.600526 46.9277 66.2856)" fill="#B7B5B5"/>
<rect width="15.896" height="25.0835" transform="matrix(0.749589 0.661904 -0.799605 0.600526 46.9277 66.2856)" fill="#D9D9D9"/>
<rect width="11.2281" height="8.94793" transform="matrix(0.749589 0.661904 -0.799605 0.600526 36.9453 76.2546)" fill="#9D9D9D"/>
<path d="M47.5703 70.2071C47.8379 70.3685 49.0277 70.1522 48.9011 70.6156C48.7991 70.9889 48.8585 71.4065 49.0476 71.7246C49.2345 72.0388 49.8945 72.0349 50.2857 72.1683C50.8759 72.3697 50.5697 72.6793 50.8158 73.0623C50.9753 73.3106 51.347 73.4462 51.5745 73.6471C52.0869 74.0995 52.478 74.6209 52.9261 75.1174C53.2179 75.4407 53.9215 75.4774 54.0482 75.9272" stroke="#9A9A9A" stroke-width="0.763092" stroke-linecap="round"/>
<path d="M47.5189 71.791C47.3265 71.6211 47.9566 72.0924 48.2166 72.1941C48.4459 72.2838 48.6771 72.3718 48.8115 72.5544C49.1655 73.0355 49.7405 73.3694 50.2096 73.7836C50.4264 73.975 50.5155 74.2573 50.6433 74.4967C50.8061 74.8018 51.2223 74.9491 51.4354 75.2281C51.6067 75.4522 51.8041 75.4034 51.693 75.7643" stroke="#9A9A9A" stroke-width="0.763092" stroke-linecap="round"/>
<path d="M45.1383 71.4147C45.4468 71.6633 45.8484 71.7529 46.0505 72.1031C46.2246 72.4048 46.3396 72.7276 46.5043 73.0415C46.7412 73.4929 47.7325 73.5995 48.2441 73.7952C48.6544 73.952 48.7805 74.177 48.9093 74.5103C49.0579 74.895 49.5101 75.1793 49.8307 75.4624C50.0183 75.628 50.2186 75.7879 50.3922 75.9635C50.5607 76.134 50.5227 76.2909 50.6046 76.4865C50.8829 77.1506 51.954 77.3373 52.4786 77.8005" stroke="#9A9A9A" stroke-width="0.763092" stroke-linecap="round"/>
<rect width="17.7868" height="23.5132" transform="matrix(0.960432 -0.278515 0.400646 0.916233 32 83.7207)" fill="#B7B5B5"/>
<rect width="17.2395" height="22.8452" transform="matrix(0.960432 -0.278515 0.400646 0.916233 32 83.7207)" fill="#D9D9D9"/>
<rect width="12.1771" height="8.14946" transform="matrix(0.960432 -0.278516 0.400646 0.916233 39.3477 95.1068)" fill="#9D9D9D"/>
<rect width="17.7868" height="23.5132" transform="matrix(0.960432 -0.278515 0.400646 0.916233 32 83.7207)" fill="#B7B5B5"/>
<rect width="17.2395" height="22.8452" transform="matrix(0.960432 -0.278515 0.400646 0.916233 32 83.7207)" fill="#D9D9D9"/>
<rect width="12.1771" height="8.14946" transform="matrix(0.960432 -0.278516 0.400646 0.916233 39.3477 95.1068)" fill="#9D9D9D"/>
<path d="M36.6816 84.7768C36.9688 84.6396 37.1909 83.6634 37.6647 83.9399C38.0465 84.1627 38.5416 84.2819 38.975 84.2649C39.4032 84.2482 39.6575 83.7522 39.9617 83.5114C40.4205 83.1482 40.6502 83.499 41.1793 83.4648C41.5224 83.4426 41.8213 83.2173 42.1374 83.1256C42.8494 82.9192 43.5917 82.8306 44.3282 82.6896C44.8079 82.5977 45.1252 82.085 45.683 82.1664" stroke="#9A9A9A" stroke-width="0.763092" stroke-linecap="round"/>
<path d="M38.4515 85.4362C38.1842 85.5137 38.9637 85.2264 39.1805 85.0715C39.3717 84.9349 39.5618 84.7962 39.8206 84.7671C40.5029 84.6905 41.1056 84.3907 41.7574 84.2016C42.0586 84.1143 42.4124 84.1581 42.733 84.1563C43.1416 84.1539 43.4711 83.8999 43.8698 83.8496C44.1901 83.8092 44.2124 83.6422 44.5766 83.8669" stroke="#9A9A9A" stroke-width="0.763092" stroke-linecap="round"/>
<path d="M37.0921 87.0713C37.494 86.9376 37.7527 86.6719 38.2275 86.6578C38.6365 86.6456 39.0463 86.6861 39.4654 86.6857C40.0683 86.6853 40.5774 85.9844 40.999 85.6778C41.337 85.432 41.6406 85.4256 42.0677 85.4599C42.5605 85.4994 43.0589 85.272 43.5044 85.1429C43.765 85.0673 44.0241 84.9799 44.2906 84.9187C44.5492 84.8593 44.7116 84.9493 44.9647 84.9646C45.824 85.0165 46.4549 84.2872 47.1838 84.0759" stroke="#9A9A9A" stroke-width="0.763092" stroke-linecap="round"/>
<rect x="24.0234" y="65.365" width="8.19618" height="7.59524" fill="#E9E9E9"/>
<rect x="24.9648" y="65.9932" width="6.24791" height="5.08253" fill="#6B6B6B"/>
<rect width="7.42062" height="8.56569" transform="matrix(0.752952 -0.658075 0.796627 0.604471 11.7422 70.6266)" fill="#E9E9E9"/>
<rect width="5.6567" height="5.73193" transform="matrix(0.752952 -0.658075 0.796627 0.604471 12.9473 70.4944)" fill="#6B6B6B"/>
<rect width="7.42062" height="8.56569" transform="matrix(0.752952 -0.658075 0.796627 0.604471 14.1309 62.423)" fill="#E9E9E9"/>
<rect width="5.6567" height="5.73193" transform="matrix(0.752952 -0.658075 0.796627 0.604471 15.3359 62.2909)" fill="#6B6B6B"/>
<rect width="6.63906" height="6.43825" transform="matrix(0.919363 0.39341 -0.542181 0.840262 12.5488 73.1105)" fill="#E9E9E9"/>
<rect width="5.06092" height="4.3083" transform="matrix(0.919363 0.39341 -0.542181 0.840262 12.9609 73.8575)" fill="#A5A4A4"/>
<ellipse cx="0.758411" cy="0.584808" rx="0.758411" ry="0.584808" transform="matrix(0.712781 0.701386 -0.829252 0.558874 60.1953 65.9498)" fill="#D9D9D9"/>
<ellipse cx="0.758411" cy="0.584808" rx="0.758411" ry="0.584808" transform="matrix(0.712781 0.701386 -0.829252 0.558874 61.5449 66.4741)" fill="#D9D9D9"/>
<ellipse cx="0.758411" cy="0.584808" rx="0.758411" ry="0.584808" transform="matrix(0.712781 0.701386 -0.829252 0.558874 62.8145 66.5747)" fill="#D9D9D9"/>
<ellipse cx="0.758411" cy="0.584808" rx="0.758411" ry="0.584808" transform="matrix(0.712781 0.701386 -0.829252 0.558874 64.1641 67.0989)" fill="#D9D9D9"/>
<ellipse cx="0.758411" cy="0.584808" rx="0.758411" ry="0.584808" transform="matrix(0.712781 0.701386 -0.829252 0.558874 65.3086 67.881)" fill="#D9D9D9"/>
<ellipse cx="0.758411" cy="0.584808" rx="0.758411" ry="0.584808" transform="matrix(0.712781 0.701386 -0.829252 0.558874 66.5234 68.6162)" fill="#D9D9D9"/>
<ellipse cx="0.758411" cy="0.584808" rx="0.758411" ry="0.584808" transform="matrix(0.712781 0.701386 -0.829252 0.558874 67.7207 68.6458)" fill="#D9D9D9"/>
<ellipse cx="0.758411" cy="0.584808" rx="0.758411" ry="0.584808" transform="matrix(0.712781 0.701386 -0.829252 0.558874 68.7715 68.4158)" fill="#D9D9D9"/>
<ellipse cx="0.758411" cy="0.584808" rx="0.758411" ry="0.584808" transform="matrix(0.712781 0.701386 -0.829252 0.558874 68.7461 67.3573)" fill="#D9D9D9"/>
<ellipse cx="0.758411" cy="0.584808" rx="0.758411" ry="0.584808" transform="matrix(0.712781 0.701386 -0.829252 0.558874 68.2324 66.5079)" fill="#D9D9D9"/>
<ellipse cx="0.758411" cy="0.584808" rx="0.758411" ry="0.584808" transform="matrix(0.712781 0.701386 -0.829252 0.558874 67.4336 65.4926)" fill="#D9D9D9"/>
<ellipse cx="0.758411" cy="0.584808" rx="0.758411" ry="0.584808" transform="matrix(0.712781 0.701386 -0.829252 0.558874 66.8438 64.337)" fill="#D9D9D9"/>
<ellipse cx="0.758411" cy="0.584808" rx="0.758411" ry="0.584808" transform="matrix(0.712781 0.701386 -0.829252 0.558874 65.6328 63.7195)" fill="#D9D9D9"/>
<ellipse cx="0.758411" cy="0.584808" rx="0.758411" ry="0.584808" transform="matrix(0.712781 0.701386 -0.829252 0.558874 64.3555 63.2661)" fill="#D9D9D9"/>
<ellipse cx="0.758411" cy="0.584808" rx="0.758411" ry="0.584808" transform="matrix(0.712781 0.701386 -0.829252 0.558874 63.082 63.048)" fill="#D9D9D9"/>
<ellipse cx="0.758411" cy="0.584808" rx="0.758411" ry="0.584808" transform="matrix(0.712781 0.701386 -0.829252 0.558874 61.7324 62.5237)" fill="#D9D9D9"/>
<ellipse cx="0.758411" cy="0.584808" rx="0.758411" ry="0.584808" transform="matrix(0.712781 0.701386 -0.829252 0.558874 60.6855 62.8712)" fill="#D9D9D9"/>
<ellipse cx="0.758411" cy="0.584808" rx="0.758411" ry="0.584808" transform="matrix(0.712781 0.701386 -0.829252 0.558874 59.707 63.172)" fill="#D9D9D9"/>
<ellipse cx="0.758411" cy="0.584808" rx="0.758411" ry="0.584808" transform="matrix(0.712781 0.701386 -0.829252 0.558874 59.0234 63.9918)" fill="#D9D9D9"/>
<ellipse cx="0.758411" cy="0.584808" rx="0.758411" ry="0.584808" transform="matrix(0.712781 0.701386 -0.829252 0.558874 58.9785 65.097)" fill="#D9D9D9"/>
</svg>
