<svg width="582" height="536" viewBox="0 0 582 536" fill="none" xmlns="http://www.w3.org/2000/svg">
<path d="M439.503 151.736L83.907 166.145C69.7008 282.532 60.5637 394.307 84.073 387.338C107.582 380.369 525.964 383.005 492.86 374.038C459.757 365.071 448.375 241.109 439.503 151.736Z" fill="black" fill-opacity="0.37"/>
<path d="M454.727 128.295L87.2041 145.304C72.9979 261.69 75.7874 370.865 99.2967 363.897C122.806 356.928 541.188 359.564 508.084 350.597C474.981 341.629 463.598 217.668 454.727 128.295Z" fill="#E1E1E1"/>
<path d="M454.727 128.295L87.2041 145.304C72.9979 261.69 75.7874 370.865 99.2967 363.897C122.806 356.928 541.188 359.564 508.084 350.597C474.981 341.629 463.598 217.668 454.727 128.295Z" fill="url(#paint0_linear_446_725)"/>
<path d="M128.324 199.897L424.229 184.369" stroke="#AAAAAA"/>
<path d="M136.819 307.336L227.317 301.772" stroke="#AAAAAA"/>
<path d="M332.815 297.68L423.313 292.116" stroke="#AAAAAA"/>
<path d="M129.513 230.745L425.419 215.217" stroke="#AAAAAA"/>
<path d="M226.924 181.301L226.962 182.627L225.099 182.797C224.914 184.396 224.542 185.699 223.985 186.706C223.449 187.711 222.511 188.818 221.17 190.026C219.828 191.235 218.193 192.266 216.265 193.12C214.361 193.996 212.752 194.47 211.439 194.542C210.127 194.614 209.116 194.396 208.407 193.89C207.7 193.407 207.323 192.735 207.276 191.875C207.204 190.562 207.902 189.208 209.369 187.811C210.858 186.39 212.676 185.178 214.823 184.176C216.991 183.149 219.153 182.418 221.309 181.983C220.939 181.435 220.393 181 219.671 180.676C218.972 180.351 217.785 180.007 216.108 179.645C215.189 179.446 214.714 179.063 214.683 178.497C214.664 178.158 214.783 177.845 215.04 177.558C215.318 177.248 215.775 176.882 216.41 176.462C217.067 176.017 217.679 175.575 218.245 175.136C218.832 174.672 219.472 174.127 220.164 173.499C220.879 172.869 221.468 172.224 221.931 171.563C222.395 170.902 222.613 170.334 222.587 169.859C222.544 169.067 222.126 168.692 221.334 168.736C220.723 168.769 219.902 169.109 218.87 169.756C217.86 170.378 216.87 171.17 215.901 172.131L214.694 176.828C213.852 180.12 212.858 182.694 211.711 184.55C210.586 186.405 209.469 187.363 208.36 187.423C207.184 187.488 206.556 186.795 206.476 185.347C206.397 183.898 206.998 182.016 208.279 179.698C209.558 177.358 211.378 174.932 213.738 172.42C213.737 172.397 213.782 172.19 213.874 171.799C213.988 171.384 214.09 170.97 214.181 170.557C214.499 169.313 214.75 168.516 214.936 168.166L216.614 168.347C216.637 168.777 216.575 169.291 216.426 169.889C217.641 168.869 218.932 167.97 220.296 167.192C221.683 166.39 222.704 165.971 223.36 165.935C224.039 165.898 224.594 166.083 225.025 166.491C225.455 166.876 225.692 167.476 225.737 168.291C225.78 169.083 225.445 170.021 224.732 171.104C224.042 172.186 223.155 173.176 222.069 174.075C220.093 175.727 218.4 176.932 216.988 177.69C219.362 177.924 221.109 178.316 222.228 178.868C223.347 179.397 224.188 180.248 224.751 181.42L226.924 181.301ZM209.376 184.201C209.987 184.168 210.824 182.658 211.887 179.671C212.337 178.353 212.663 177.257 212.865 176.383C213.089 175.508 213.199 175.025 213.194 174.935C212.045 176.337 211.02 177.925 210.118 179.7C209.216 181.474 208.786 182.746 208.828 183.516C208.854 183.991 209.037 184.22 209.376 184.201ZM218.741 189.819C219.809 189.011 220.646 188.125 221.251 187.162C221.857 186.198 222.138 185.308 222.093 184.494C222.072 184.109 221.994 183.727 221.86 183.349C218.488 183.942 215.741 184.988 213.621 186.489C211.5 187.967 210.474 189.328 210.542 190.573C210.571 191.116 210.81 191.534 211.257 191.828C211.706 192.144 212.303 192.281 213.05 192.241C214.884 192.14 216.78 191.333 218.741 189.819ZM236.012 179.034C237.254 178.921 237.904 179.396 237.962 180.46C238.039 181.863 237.357 183.296 235.916 184.76C234.496 186.2 233.028 186.961 231.512 187.044C230.086 187.122 229.321 186.199 229.216 184.275C229.133 182.758 229.403 180.859 230.028 178.578C230.674 176.273 231.22 174.642 231.668 173.687L233.223 174.113C232.729 175.865 232.244 178.003 231.769 180.526L232.199 180.298C233.677 179.514 234.948 179.092 236.012 179.034ZM235.66 182.561C235.778 182.236 235.83 181.938 235.815 181.667C235.714 181.059 235.165 180.783 234.169 180.837C233.694 180.863 232.823 181.115 231.555 181.593C231.411 182.282 231.354 182.898 231.383 183.441C231.412 183.962 231.559 184.374 231.825 184.677C232.114 184.979 232.474 185.118 232.904 185.095C233.356 185.07 233.876 184.815 234.462 184.329C235.047 183.82 235.447 183.231 235.66 182.561ZM241.307 181.843L240.533 186.38L238.581 186.181C238.884 183.417 239.311 180.84 239.862 178.449C240.435 176.057 241.01 174.334 241.588 173.281L243.263 173.394C242.563 175.544 241.911 178.36 241.307 181.843ZM283.652 179.938L284.402 180.578C283.238 182.957 281.819 184.193 280.144 184.284C279.465 184.321 278.923 184.169 278.518 183.828C278.135 183.463 277.927 182.975 277.894 182.364C277.859 181.73 278.174 180.635 278.838 179.078C279.502 177.521 279.835 176.345 279.837 175.55C279.84 175.187 279.71 174.899 279.449 174.686C279.21 174.472 278.887 174.376 278.48 174.398C278.072 174.421 277.659 174.545 277.24 174.773C276.843 174.976 276.452 175.304 276.068 175.756C275.707 176.207 275.368 176.645 275.051 177.071C274.756 177.496 274.425 178.093 274.059 178.862C273.715 179.63 273.421 180.27 273.176 180.783C272.752 181.737 272.149 183.166 271.367 185.07L269.292 184.469C269.288 184.401 269.591 183.102 270.202 180.571C270.813 178.041 271.106 176.538 271.08 176.063C271.054 175.587 270.922 175.254 270.684 175.063C270.446 174.849 270.157 174.751 269.817 174.769C268.799 174.825 267.453 176.17 265.781 178.804C264.132 181.436 263.107 183.66 262.707 185.475L260.736 184.936C260.784 183.73 261.198 181.551 261.98 178.398C262.759 175.223 263.447 173.052 264.041 171.884L265.599 172.344C264.982 173.944 264.568 175.295 264.356 176.396C264.142 177.474 263.967 178.63 263.83 179.864C265.625 176.974 267.148 174.938 268.4 173.757C269.651 172.554 270.808 171.923 271.872 171.865C273.026 171.802 273.635 172.348 273.698 173.502C273.723 173.955 273.568 174.86 273.233 176.217C272.921 177.574 272.673 178.643 272.489 179.425C275.338 174.229 277.996 171.565 280.463 171.43C281.074 171.396 281.571 171.562 281.954 171.927C282.336 172.269 282.547 172.814 282.588 173.561C282.628 174.285 282.264 175.52 281.497 177.264C280.752 179.007 280.392 180.105 280.417 180.558C280.44 180.988 280.548 181.3 280.74 181.494C280.933 181.687 281.164 181.777 281.436 181.762C282.024 181.73 282.763 181.122 283.652 179.938ZM295.231 173.619C295.872 174.56 296.225 175.619 296.29 176.796C296.39 178.63 295.846 180.305 294.657 181.823C293.468 183.318 292.013 184.112 290.293 184.206C288.98 184.278 287.93 183.961 287.142 183.255C286.376 182.525 285.956 181.492 285.883 180.157C285.766 178.007 286.498 176.037 288.08 174.248C289.661 172.437 291.493 171.474 293.575 171.36C293.96 171.339 294.232 171.336 294.392 171.35L294.555 172.464C292.744 172.563 291.267 173.166 290.125 174.273C288.982 175.379 288.455 176.748 288.544 178.377C288.597 179.35 288.878 180.13 289.387 180.715C289.895 181.277 290.601 181.534 291.506 181.484C292.434 181.433 293.147 180.986 293.646 180.141C294.145 179.297 294.364 178.332 294.305 177.245C294.245 176.136 293.974 175.141 293.495 174.259L295.231 173.619ZM308.557 179.088L309.546 179.749C309.346 180.237 308.889 180.807 308.176 181.459C307.485 182.109 306.653 182.461 305.679 182.514C304.367 182.586 303.674 181.954 303.601 180.619C303.559 179.85 303.671 178.992 303.937 178.047C304.225 177.078 304.506 176.2 304.781 175.413C305.054 174.603 305.219 174.095 305.276 173.888C304.775 174.687 303.936 175.539 302.76 176.443C301.605 177.323 300.529 177.79 299.534 177.845C298.062 177.925 297.281 177.128 297.19 175.453C297.13 174.367 297.359 173.151 297.876 171.806C298.415 170.46 298.999 169.509 299.627 168.953L301.15 169.414C300.194 171.441 299.742 172.93 299.794 173.881C299.846 174.831 300.313 175.282 301.196 175.234C302.214 175.179 303.349 174.549 304.6 173.346C305.851 172.142 306.701 170.677 307.152 168.95L308.971 169.838C306.763 174.294 305.704 177.36 305.796 179.035C305.838 179.804 306.153 180.173 306.742 180.141C307.353 180.108 307.958 179.757 308.557 179.088ZM323.633 168.935L324.974 169.168C324.96 169.328 324.669 170.036 324.102 171.293C323.557 172.526 322.987 174.146 322.393 176.153C321.798 178.138 321.453 180.132 321.358 182.135L319.176 182.084C319.108 180.839 319.416 179.21 320.1 177.198C319.896 177.186 319.476 177.198 318.842 177.232C318.231 177.266 317.108 177.475 315.472 177.859C314.458 180.503 314.002 182.741 314.102 184.574L311.811 184.393C311.723 182.786 312.214 180.773 313.285 178.353C312.141 178.597 311.002 178.932 309.867 179.357L309.455 178.052C309.451 177.984 310.041 177.759 311.223 177.376C312.428 176.993 313.322 176.74 313.906 176.617C315.489 172.354 316.59 169.876 317.211 169.183L318.702 169.681C318.601 169.913 318.369 170.437 318.005 171.251C317.094 173.276 316.488 174.853 316.186 175.982C318.144 175.67 319.316 175.504 319.7 175.483C320.108 175.461 320.448 175.454 320.721 175.461C322.106 171.731 323.077 169.555 323.633 168.935ZM336.341 171.373C336.983 172.314 337.336 173.373 337.4 174.55C337.5 176.383 336.956 178.059 335.768 179.577C334.578 181.072 333.124 181.866 331.403 181.96C330.091 182.032 329.041 181.715 328.253 181.009C327.487 180.279 327.067 179.246 326.994 177.911C326.877 175.761 327.609 173.791 329.191 172.002C330.772 170.19 332.603 169.228 334.686 169.114C335.07 169.093 335.342 169.089 335.502 169.103L335.665 170.218C333.855 170.317 332.378 170.92 331.235 172.027C330.093 173.133 329.566 174.501 329.655 176.131C329.708 177.104 329.989 177.883 330.498 178.468C331.005 179.031 331.711 179.287 332.617 179.238C333.545 179.187 334.258 178.74 334.757 177.895C335.255 177.051 335.475 176.085 335.416 174.999C335.355 173.89 335.085 172.895 334.606 172.013L336.341 171.373ZM166.128 216.146C164.858 217.419 163.166 219.475 161.051 222.314L160.058 221.585C160.431 220.521 162.157 218.247 165.235 214.765C164.262 212.73 163.693 211.047 163.529 209.716L165.748 209.186C165.87 209.339 166.386 210.684 167.296 213.222C170.037 211.029 171.991 209.617 173.16 208.986L173.855 209.867C173.488 210.205 172.835 210.729 171.898 211.438C169.392 213.346 168.074 214.371 167.946 214.515C169.31 217.051 170.892 219.211 172.693 220.997L171.153 222.103C169.222 220.846 167.548 218.861 166.128 216.146ZM184.962 210.69C185.604 211.632 185.957 212.691 186.021 213.867C186.121 215.701 185.577 217.376 184.389 218.894C183.199 220.389 181.744 221.184 180.024 221.278C178.712 221.349 177.661 221.032 176.874 220.326C176.107 219.596 175.688 218.563 175.615 217.228C175.497 215.078 176.23 213.108 177.812 211.319C179.393 209.508 181.224 208.545 183.306 208.431C183.691 208.41 183.963 208.407 184.123 208.421L184.286 209.536C182.475 209.635 180.999 210.237 179.856 211.344C178.713 212.451 178.187 213.819 178.276 215.448C178.329 216.422 178.61 217.201 179.118 217.786C179.626 218.348 180.332 218.605 181.238 218.555C182.165 218.505 182.879 218.057 183.377 217.213C183.876 216.368 184.096 215.403 184.036 214.316C183.976 213.207 183.706 212.212 183.226 211.33L184.962 210.69ZM210.084 215.004L210.834 215.644C209.67 218.023 208.251 219.259 206.576 219.35C205.897 219.387 205.355 219.235 204.951 218.894C204.568 218.529 204.359 218.041 204.326 217.43C204.291 216.796 204.606 215.701 205.27 214.144C205.934 212.586 206.267 211.411 206.269 210.616C206.272 210.253 206.143 209.964 205.881 209.752C205.643 209.538 205.32 209.442 204.912 209.464C204.505 209.486 204.092 209.611 203.673 209.838C203.275 210.042 202.885 210.37 202.501 210.822C202.14 211.273 201.8 211.711 201.483 212.137C201.188 212.562 200.858 213.159 200.491 213.928C200.147 214.696 199.853 215.336 199.609 215.849C199.184 216.803 198.581 218.232 197.8 220.136L195.724 219.534C195.72 219.467 196.024 218.167 196.635 215.637C197.246 213.107 197.538 211.604 197.512 211.128C197.486 210.653 197.354 210.32 197.117 210.128C196.878 209.915 196.589 209.817 196.25 209.835C195.231 209.891 193.886 211.236 192.214 213.87C190.564 216.502 189.539 218.726 189.139 220.541L187.169 220.002C187.216 218.796 187.631 216.617 188.412 213.464C189.192 210.289 189.879 208.118 190.474 206.95L192.031 207.41C191.415 209.01 191 210.361 190.788 211.462C190.575 212.54 190.4 213.696 190.263 214.93C192.057 212.039 193.58 210.004 194.832 208.823C196.083 207.62 197.24 206.989 198.304 206.931C199.459 206.868 200.067 207.413 200.13 208.568C200.155 209.02 200 209.926 199.666 211.283C199.354 212.64 199.106 213.709 198.922 214.491C201.77 209.295 204.428 206.63 206.895 206.496C207.506 206.462 208.003 206.628 208.387 206.993C208.769 207.335 208.98 207.88 209.021 208.627C209.06 209.351 208.696 210.585 207.929 212.33C207.184 214.073 206.824 215.171 206.849 215.624C206.873 216.054 206.981 216.366 207.173 216.559C207.365 216.753 207.597 216.843 207.868 216.828C208.457 216.796 209.195 216.188 210.084 215.004ZM226.444 214.553L227.189 215.091C226.856 216.063 226.289 216.9 225.487 217.602C224.708 218.303 223.979 218.672 223.3 218.709C222.644 218.745 222.111 218.547 221.702 218.115C221.291 217.661 221.065 217.06 221.024 216.313C220.984 215.566 221.055 214.598 221.24 213.407C220.268 215.14 219.197 216.515 218.026 217.533C216.856 218.55 215.852 219.082 215.015 219.127C213.747 219.197 213.072 218.473 212.989 216.957C212.907 215.44 213.316 213.375 214.217 210.76C215.14 208.122 215.818 206.61 216.251 206.223L217.919 206.847C217.073 208.391 216.452 209.901 216.056 211.375C215.659 212.85 215.475 213.836 215.502 214.334C215.528 214.809 215.696 215.186 216.007 215.464C216.339 215.741 216.71 215.868 217.117 215.846C218.022 215.796 219.098 214.909 220.343 213.184C221.609 211.435 222.854 208.87 224.076 205.489L225.85 206.175C225.815 206.359 225.366 207.7 224.504 210.198C223.664 212.696 223.258 214.194 223.285 214.692C223.311 215.167 223.433 215.523 223.65 215.761C223.89 215.998 224.112 216.111 224.316 216.099C224.542 216.087 224.711 216.067 224.823 216.038C224.935 216.009 225.046 215.957 225.155 215.883C225.264 215.809 225.352 215.748 225.417 215.699C225.505 215.649 225.603 215.564 225.71 215.444L225.933 215.16C225.998 215.111 226.084 215.015 226.189 214.873C226.317 214.708 226.402 214.601 226.444 214.553ZM252.256 212.7L253.006 213.34C251.842 215.719 250.422 216.954 248.748 217.046C248.069 217.083 247.527 216.931 247.122 216.59C246.739 216.225 246.531 215.737 246.497 215.126C246.463 214.492 246.778 213.397 247.442 211.839C248.106 210.282 248.439 209.106 248.441 208.312C248.443 207.948 248.314 207.66 248.053 207.448C247.814 207.234 247.491 207.138 247.084 207.16C246.676 207.182 246.263 207.307 245.844 207.534C245.447 207.738 245.056 208.065 244.672 208.518C244.311 208.969 243.972 209.407 243.654 209.833C243.36 210.258 243.029 210.855 242.663 211.624C242.319 212.392 242.025 213.032 241.78 213.545C241.356 214.499 240.753 215.928 239.971 217.832L237.895 217.23C237.892 217.162 238.195 215.863 238.806 213.333C239.417 210.802 239.71 209.3 239.684 208.824C239.658 208.349 239.526 208.016 239.288 207.824C239.05 207.61 238.761 207.513 238.421 207.531C237.403 207.587 236.057 208.932 234.385 211.565C232.736 214.198 231.711 216.422 231.311 218.237L229.34 217.698C229.388 216.492 229.802 214.313 230.583 211.16C231.363 207.985 232.051 205.814 232.645 204.646L234.203 205.106C233.586 206.706 233.172 208.056 232.96 209.158C232.746 210.236 232.571 211.392 232.434 212.625C234.228 209.735 235.752 207.7 237.004 206.519C238.255 205.316 239.412 204.685 240.476 204.627C241.63 204.564 242.239 205.109 242.302 206.264C242.326 206.716 242.172 207.621 241.837 208.979C241.525 210.335 241.277 211.404 241.093 212.186C243.942 206.991 246.6 204.326 249.067 204.191C249.678 204.158 250.175 204.324 250.558 204.689C250.94 205.031 251.151 205.576 251.192 206.323C251.232 207.047 250.868 208.281 250.101 210.026C249.356 211.769 248.996 212.867 249.021 213.32C249.044 213.75 249.152 214.061 249.344 214.255C249.536 214.449 249.768 214.539 250.04 214.524C250.628 214.492 251.367 213.884 252.256 212.7ZM263.997 212.467L264.811 213.036C264.163 214.047 263.245 214.914 262.059 215.638C260.871 216.338 259.7 216.72 258.546 216.783C257.392 216.846 256.445 216.557 255.707 215.917C254.968 215.276 254.568 214.401 254.508 213.292C254.394 211.21 255.38 209.102 257.465 206.967C259.573 204.832 261.759 203.702 264.022 203.579C265.516 203.497 266.295 204.045 266.359 205.222C266.426 206.444 265.701 207.72 264.185 209.052C262.691 210.382 260.546 211.634 257.75 212.808C257.982 213.318 258.321 213.708 258.768 213.979C259.214 214.249 259.663 214.372 260.116 214.348C261.089 214.295 262.383 213.668 263.997 212.467ZM257.525 211.799C259.323 211.065 260.853 210.187 262.114 209.165C263.375 208.143 263.983 207.235 263.94 206.443C263.924 206.149 263.797 205.895 263.558 205.681C263.319 205.467 263.053 205.368 262.759 205.384C261.695 205.442 260.577 206.173 259.405 207.576C258.255 208.956 257.628 210.364 257.525 211.799ZM288.139 204.474C287.737 207.084 287.557 208.978 287.598 210.156C287.686 211.763 288.194 212.541 289.122 212.49C290.118 212.436 290.988 211.957 291.733 211.054C292.479 210.151 292.82 209.122 292.757 207.967C292.694 206.813 292.232 206.259 291.372 206.306C291.123 206.32 290.588 206.497 289.766 206.837L289.303 205.841C290.696 204.743 291.811 204.171 292.649 204.126C294.211 204.04 295.034 204.778 295.119 206.34C295.22 208.173 294.552 210.083 293.117 212.068C291.703 214.029 290.159 215.056 288.484 215.147C286.651 215.247 285.662 213.985 285.519 211.359C285.451 210.115 285.689 208.036 286.234 205.123L283.539 206.292L283.461 205.479C283.68 205.331 284.687 204.867 286.484 204.088C287.006 199.519 287.896 196.293 289.155 194.408C290.413 192.5 292.083 191.49 294.166 191.376C295.116 191.324 295.891 191.588 296.49 192.168C297.089 192.748 297.416 193.525 297.469 194.498C297.575 196.445 296.781 198.315 295.085 200.111C293.389 201.883 291.074 203.338 288.139 204.474ZM288.287 203.445C290.207 202.432 291.777 201.256 292.998 199.918C294.219 198.58 294.801 197.391 294.744 196.35C294.714 195.807 294.532 195.374 294.196 195.052C293.861 194.729 293.455 194.581 292.98 194.607C292.029 194.659 291.127 195.378 290.272 196.764C289.417 198.15 288.755 200.377 288.287 203.445ZM306.364 206.236C307.607 206.123 308.257 206.598 308.315 207.662C308.392 209.065 307.709 210.499 306.269 211.962C304.849 213.402 303.381 214.163 301.865 214.246C300.439 214.324 299.673 213.401 299.568 211.477C299.485 209.961 299.756 208.062 300.38 205.78C301.026 203.475 301.573 201.845 302.02 200.889L303.576 201.315C303.081 203.068 302.596 205.205 302.121 207.728L302.552 207.5C304.03 206.716 305.301 206.295 306.364 206.236ZM306.012 209.763C306.131 209.439 306.182 209.141 306.168 208.869C306.066 208.262 305.518 207.985 304.522 208.04C304.047 208.066 303.175 208.318 301.907 208.795C301.763 209.484 301.706 210.1 301.736 210.644C301.764 211.164 301.912 211.576 302.178 211.879C302.467 212.181 302.826 212.321 303.256 212.297C303.709 212.272 304.228 212.017 304.815 211.531C305.4 211.022 305.799 210.433 306.012 209.763ZM311.659 209.046L310.886 213.583L308.934 213.383C309.237 210.62 309.664 208.042 310.214 205.652C310.787 203.259 311.363 201.537 311.941 200.484L313.615 200.596C312.916 202.746 312.264 205.562 311.659 209.046ZM328.551 208.974L329.295 209.512C328.962 210.484 328.395 211.321 327.593 212.023C326.815 212.724 326.086 213.093 325.407 213.13C324.75 213.166 324.217 212.968 323.808 212.536C323.397 212.082 323.171 211.481 323.13 210.734C323.09 209.988 323.162 209.019 323.346 207.828C322.374 209.561 321.303 210.936 320.133 211.954C318.962 212.971 317.958 213.503 317.121 213.548C315.854 213.618 315.178 212.894 315.096 211.378C315.013 209.861 315.422 207.796 316.323 205.182C317.246 202.543 317.924 201.031 318.357 200.644L320.025 201.268C319.179 202.812 318.558 204.322 318.162 205.796C317.766 207.271 317.581 208.257 317.608 208.755C317.634 209.23 317.802 209.607 318.113 209.885C318.446 210.162 318.816 210.289 319.223 210.267C320.128 210.217 321.204 209.33 322.449 207.605C323.715 205.856 324.96 203.291 326.182 199.91L327.957 200.596C327.921 200.78 327.472 202.121 326.61 204.619C325.77 207.117 325.364 208.615 325.391 209.113C325.417 209.588 325.539 209.945 325.756 210.182C325.996 210.419 326.218 210.532 326.422 210.521C326.648 210.508 326.817 210.488 326.929 210.459C327.041 210.43 327.152 210.379 327.261 210.304C327.371 210.23 327.458 210.169 327.524 210.12C327.612 210.07 327.709 209.985 327.816 209.865L328.073 209.579C328.116 209.531 328.19 209.436 328.296 209.294C328.423 209.129 328.508 209.022 328.551 208.974ZM325.875 196.147L326.923 196.635C326.509 197.361 325.954 198.015 325.26 198.598C324.588 199.18 323.901 199.49 323.199 199.528C322.498 199.566 321.748 199.346 320.95 198.868C320.151 198.367 319.499 197.857 318.994 197.34L320.03 196.364C321.27 197.454 322.263 197.979 323.01 197.938C324.164 197.875 325.119 197.278 325.875 196.147ZM354.667 207.104L355.417 207.744C354.254 210.124 352.834 211.359 351.159 211.45C350.48 211.487 349.939 211.335 349.534 210.994C349.151 210.629 348.943 210.141 348.909 209.53C348.875 208.896 349.189 207.801 349.853 206.244C350.517 204.687 350.85 203.511 350.852 202.716C350.855 202.353 350.726 202.065 350.465 201.852C350.226 201.638 349.903 201.542 349.495 201.564C349.088 201.587 348.675 201.711 348.256 201.939C347.859 202.142 347.468 202.47 347.084 202.922C346.723 203.373 346.383 203.811 346.066 204.237C345.772 204.662 345.441 205.259 345.074 206.028C344.73 206.796 344.436 207.436 344.192 207.949C343.767 208.903 343.164 210.332 342.383 212.236L340.307 211.635C340.303 211.567 340.607 210.268 341.218 207.737C341.829 205.207 342.121 203.704 342.095 203.229C342.069 202.753 341.938 202.42 341.7 202.229C341.461 202.015 341.172 201.917 340.833 201.936C339.814 201.991 338.469 203.336 336.797 205.97C335.147 208.602 334.123 210.826 333.722 212.641L331.752 212.102C331.8 210.896 332.214 208.717 332.995 205.565C333.775 202.389 334.462 200.218 335.057 199.05L336.614 199.51C335.998 201.11 335.584 202.461 335.371 203.562C335.158 204.64 334.983 205.796 334.846 207.03C336.64 204.14 338.163 202.104 339.415 200.923C340.666 199.72 341.824 199.089 342.887 199.031C344.042 198.968 344.65 199.514 344.713 200.668C344.738 201.121 344.583 202.026 344.249 203.383C343.937 204.74 343.689 205.809 343.505 206.591C346.354 201.396 349.011 198.731 351.478 198.596C352.09 198.562 352.587 198.728 352.97 199.093C353.352 199.435 353.563 199.98 353.604 200.727C353.643 201.451 353.28 202.686 352.512 204.43C351.768 206.173 351.408 207.271 351.432 207.724C351.456 208.154 351.564 208.466 351.756 208.66C351.948 208.853 352.18 208.943 352.452 208.928C353.04 208.896 353.779 208.288 354.667 207.104ZM371.028 206.653L371.772 207.191C371.439 208.163 370.872 209 370.07 209.702C369.292 210.403 368.563 210.772 367.884 210.809C367.227 210.845 366.694 210.647 366.285 210.215C365.874 209.761 365.648 209.16 365.608 208.414C365.567 207.667 365.639 206.698 365.823 205.507C364.851 207.24 363.78 208.616 362.61 209.633C361.439 210.65 360.436 211.182 359.598 211.228C358.331 211.297 357.655 210.573 357.573 209.057C357.49 207.54 357.899 205.475 358.8 202.861C359.723 200.222 360.401 198.71 360.834 198.323L362.502 198.947C361.656 200.491 361.035 202.001 360.639 203.475C360.243 204.95 360.058 205.936 360.085 206.434C360.111 206.909 360.279 207.286 360.59 207.564C360.923 207.841 361.293 207.968 361.7 207.946C362.605 207.897 363.681 207.009 364.926 205.284C366.192 203.535 367.437 200.97 368.659 197.589L370.434 198.275C370.398 198.459 369.949 199.8 369.087 202.299C368.247 204.796 367.841 206.294 367.868 206.792C367.894 207.267 368.016 207.624 368.233 207.861C368.473 208.098 368.695 208.211 368.899 208.2C369.125 208.187 369.294 208.167 369.406 208.138C369.518 208.109 369.629 208.058 369.738 207.984C369.848 207.909 369.935 207.848 370.001 207.799C370.089 207.749 370.186 207.664 370.293 207.545L370.516 207.26C370.581 207.211 370.667 207.116 370.773 206.974C370.9 206.808 370.985 206.701 371.028 206.653ZM376.802 192.683C377.818 191.334 379.01 190.293 380.377 189.56C381.743 188.804 382.992 188.395 384.124 188.333C385.278 188.27 386.211 188.526 386.924 189.1C387.657 189.65 388.051 190.412 388.104 191.385C388.192 192.992 387.264 194.711 385.321 196.542L383.217 198.53C381.08 200.554 379.659 202.379 378.953 204.007C378.812 204.332 378.658 204.636 378.492 204.917L377.17 204.411C377.535 202.779 379.246 200.223 382.302 196.741C383.327 195.573 383.986 194.754 384.278 194.284C384.569 193.791 384.701 193.296 384.674 192.798C384.616 191.734 384.044 191.232 382.957 191.291C381.577 191.367 380.289 191.891 379.093 192.865C377.921 193.837 377.133 195.219 376.732 197.012L375.433 196.912C375.352 195.441 375.809 194.032 376.802 192.683ZM375.371 208.868C375.347 208.438 375.475 208.079 375.755 207.791C376.057 207.502 376.423 207.346 376.853 207.322C377.305 207.298 377.662 207.392 377.924 207.604C378.184 207.794 378.325 208.093 378.347 208.501C378.368 208.885 378.228 209.234 377.928 209.545C377.649 209.855 377.284 210.023 376.831 210.048C375.903 210.098 375.417 209.705 375.371 208.868Z" fill="#545454"/>
<defs>
<linearGradient id="paint0_linear_446_725" x1="329.396" y1="376.127" x2="329.755" y2="222.358" gradientUnits="userSpaceOnUse">
<stop stop-color="#AAA8A8"/>
<stop offset="1" stop-color="#D7D7D7" stop-opacity="0"/>
</linearGradient>
</defs>
</svg>
