<svg width="253" height="453" viewBox="0 0 253 453" fill="none" xmlns="http://www.w3.org/2000/svg">
<g clip-path="url(#clip0_432_9107)">
<path opacity="0.3" d="M81.9068 -67.7226C-39.8462 -172.732 -268.554 -258.594 -352.765 -255.707L-578.899 344.367C-531.285 370.465 -224.72 479.17 -99.2861 596.748C8.51547 462.024 106 54.8667 81.9068 -67.7226Z" fill="black"/>
<path d="M113.141 -45.1114C-11.6928 -146.439 -217.773 -241.462 -327.382 -267.458L-556.145 345.93C-498.694 366.421 -192.296 468.389 -63.4075 582.169C34.1444 423.985 102.359 63.264 113.141 -45.1114Z" fill="#BCB8B8" stroke="#4D4D4D"/>
<path d="M114.213 -54.1626C-10.6208 -155.49 -236.21 -239.627 -327.381 -267.458L-556.144 345.929C-509.365 362.645 -192.295 468.389 -63.4065 582.169C32.313 428.658 106.871 47.5189 114.213 -54.1626Z" fill="url(#paint0_linear_432_9107)"/>
<path d="M-540.52 349.645L-311.343 -230.773C-269 -237.166 7.66346 -136.804 119.388 -57.3339C109.982 -2.59613 99.7958 48.0718 89.2106 95.2445L90.6316 96.3752L88.2996 108.196L83.5087 105.327C36.6047 273.706 -26.743 431.383 -58.3382 548.463L-48.6166 555.255L-52.057 561.95L-60.6115 557.029C-61.7179 561.272 -62.7795 565.459 -63.7939 569.588C-250.453 440.866 -360.737 383.292 -540.52 349.645Z" fill="#595656" fill-opacity="0.35"/>
<path d="M-540.52 349.643L-314.239 -237.577C-271.896 -243.971 4.76698 -143.609 116.491 -64.1385C63.8434 232.57 10.977 335.753 -40.3542 563.244C-264.624 443.265 -361.913 381.477 -540.52 349.643Z" fill="#EFEBEB"/>
<path d="M-540.519 349.644L-314.239 -237.577C-271.895 -243.97 4.76795 -143.608 116.492 -64.1381C63.8444 232.57 10.978 335.754 -40.3532 563.244C-264.623 443.265 -361.912 381.477 -540.519 349.644Z" fill="#B5B5B5" fill-opacity="0.32"/>
<g opacity="0.3">
<path d="M231.686 181.834C178.532 123.729 61.6812 79.4344 2.99953 58.3552L47.0656 151.136C54.4781 150.606 83.7653 158.51 117.368 173.179C153.994 189.167 186.655 215.588 198.713 225.099L196.756 206.819L216.739 202.818L211.179 184.067C214.573 183.83 217.757 182.886 231.686 181.834Z" fill="#1E1E1E" stroke="black" stroke-opacity="0.3" stroke-width="2"/>
<path d="M116.414 143.551L116.877 144.528C115.983 145.341 114.924 145.882 113.699 146.151C112.499 146.432 111.538 146.4 110.817 146.053C110.121 145.718 109.683 145.212 109.506 144.535C109.34 143.833 109.448 143.086 109.829 142.293C110.21 141.5 110.834 140.542 111.699 139.42C109.714 140.655 107.83 141.465 106.047 141.851C104.264 142.236 102.928 142.215 102.039 141.788C100.693 141.141 100.43 139.964 101.251 138.257C101.331 138.089 101.997 137.137 103.246 135.4C101.273 136.611 99.4957 137.384 97.9145 137.719C96.369 138.041 95.1396 137.982 94.2263 137.543C92.8805 136.896 92.6178 135.719 93.4382 134.013L95.432 133.374C95.224 133.807 95.2012 134.254 95.3634 134.717C95.5496 135.191 95.859 135.532 96.2916 135.74C97.0847 136.121 98.4777 135.963 100.471 135.264C102.488 134.577 104.587 133.411 106.768 131.767C107.239 131.402 107.787 130.97 108.412 130.472C109.072 129.96 109.543 129.595 109.826 129.376C110.109 129.157 110.427 128.926 110.781 128.682C111.348 128.303 111.799 128.195 112.136 128.356C112.472 128.518 112.685 128.783 112.774 129.152C112.864 129.52 112.821 129.884 112.648 130.245C112.486 130.581 112.188 130.926 111.752 131.279C111.34 131.643 110.715 132.112 109.877 132.685C109.051 133.235 108.384 133.698 107.877 134.076C106.466 135.41 105.617 136.377 105.328 136.978C105.039 137.579 104.975 138.11 105.138 138.573C105.324 139.047 105.633 139.388 106.066 139.596C106.883 139.989 108.157 139.832 109.887 139.126C111.653 138.407 113.75 137.092 116.177 135.182C116.472 134.939 116.808 134.671 117.185 134.379C117.573 134.063 117.862 133.832 118.051 133.686C118.251 133.516 118.475 133.327 118.722 133.121C118.993 132.926 119.194 132.785 119.324 132.7C119.489 132.602 119.649 132.516 119.803 132.442C120.123 132.33 120.415 132.337 120.68 132.464C120.968 132.603 121.157 132.856 121.246 133.225C121.335 133.593 121.293 133.958 121.12 134.318C120.958 134.655 119.641 135.856 117.168 137.922C114.731 139.975 113.379 141.278 113.114 141.831C112.848 142.384 112.76 142.844 112.849 143.213C112.962 143.592 113.127 143.834 113.343 143.938C113.583 144.054 113.769 144.129 113.901 144.162C114.033 144.196 114.176 144.206 114.331 144.192C114.486 144.177 114.611 144.163 114.706 144.15C114.825 144.148 114.974 144.116 115.152 144.054L115.526 143.923C115.632 143.885 115.78 143.823 115.97 143.737C116.195 143.638 116.343 143.576 116.414 143.551ZM129.617 149.81L130.134 150.857C128.892 151.533 127.455 151.907 125.822 151.98C124.2 152.029 122.777 151.759 121.551 151.169C120.325 150.58 119.513 149.746 119.115 148.666C118.717 147.587 118.801 146.459 119.367 145.281C120.43 143.07 122.641 141.456 126.001 140.438C129.384 139.431 132.278 139.505 134.681 140.661C136.267 141.424 136.76 142.43 136.159 143.68C135.535 144.977 134.064 145.883 131.746 146.396C129.453 146.92 126.532 146.995 122.984 146.621C122.934 147.277 123.063 147.872 123.369 148.404C123.675 148.936 124.069 149.317 124.55 149.548C125.583 150.045 127.272 150.132 129.617 149.81ZM123.323 145.453C125.593 145.716 127.668 145.678 129.547 145.338C131.427 144.999 132.569 144.409 132.973 143.568C133.123 143.255 133.136 142.921 133.011 142.565C132.886 142.209 132.668 141.956 132.355 141.806C131.226 141.263 129.659 141.383 127.656 142.165C125.688 142.935 124.244 144.031 123.323 145.453ZM153.217 149.129L154.467 150.13C154.362 150.286 153.661 150.852 152.364 151.826C151.103 152.788 149.597 154.135 147.847 155.868C146.108 157.576 144.622 159.436 143.389 161.447L141.168 160.157C141.804 158.836 143.045 157.331 144.891 155.645C144.687 155.517 144.248 155.291 143.575 154.968C142.926 154.656 141.649 154.234 139.745 153.703C137.202 155.853 135.462 157.902 134.526 159.849L132.267 158.363C133.087 156.657 134.735 154.86 137.211 152.973C135.893 152.576 134.528 152.275 133.118 152.07L133.433 150.491C133.468 150.419 134.203 150.521 135.638 150.797C137.098 151.084 138.163 151.33 138.834 151.534C142.883 148.037 145.424 146.107 146.456 145.745L147.711 147.103C147.475 147.286 146.939 147.694 146.102 148.327C144.015 149.898 142.497 151.18 141.546 152.172C143.741 152.961 145.042 153.454 145.451 153.65C145.884 153.858 146.238 154.044 146.515 154.207C150.058 151.146 152.292 149.454 153.217 149.129ZM172.733 162.107C172.848 162.607 172.828 163.233 172.673 163.987C172.529 164.717 172.353 165.298 172.145 165.73C171.128 167.845 169.589 169.354 167.528 170.257C165.478 171.135 163.516 171.124 161.641 170.223C160.247 169.552 159.344 168.63 158.933 167.456C158.556 166.269 158.709 164.966 159.391 163.548C159.61 163.092 159.802 162.755 159.966 162.538C159.51 162.378 158.509 162.059 156.963 161.582C155.134 162.863 153.792 164.392 152.937 166.171L150.861 164.951C151.508 163.605 152.697 162.239 154.429 160.852C153.733 160.577 152.638 160.331 151.144 160.116L151.459 158.537C151.506 158.44 152.109 158.509 153.269 158.741C154.454 158.985 155.382 159.209 156.053 159.414C160.102 155.916 162.642 153.986 163.674 153.624L164.93 154.983C164.435 155.396 163.599 156.088 162.421 157.061C161.255 158.009 160.036 159.006 158.764 160.052L161.301 160.96C162.77 159.566 164.539 158.656 166.608 158.231C168.677 157.805 170.576 158.008 172.307 158.84C172.715 159.037 172.998 159.187 173.154 159.292L172.691 160.534C170.768 159.609 168.904 159.394 167.099 159.887C165.293 160.38 163.975 161.492 163.143 163.222C162.646 164.255 162.494 165.218 162.687 166.109C162.891 166.977 163.438 167.625 164.327 168.052C165.216 168.48 166.176 168.453 167.206 167.972C168.26 167.502 169.059 166.703 169.602 165.573C169.856 165.044 170.061 164.373 170.215 163.56C170.381 162.722 170.503 162.13 170.581 161.783L172.733 162.107Z" fill="#CCCCCC"/>
</g>
<path d="M238.431 170.801C185.278 112.695 68.4263 68.4012 9.74464 47.322L53.8107 140.103C61.2232 139.572 90.5104 147.477 124.113 162.146C160.739 178.134 193.4 204.555 205.458 214.066L203.502 195.786L223.485 191.784L217.924 173.033C221.318 172.797 224.502 171.852 238.431 170.801Z" fill="#710303" stroke="#581919" stroke-width="2"/>
<path d="M123.159 132.518L123.622 133.495C122.728 134.308 121.669 134.849 120.445 135.118C119.244 135.399 118.284 135.366 117.563 135.02C116.866 134.685 116.428 134.178 116.251 133.501C116.085 132.8 116.193 132.053 116.574 131.26C116.955 130.467 117.579 129.509 118.444 128.386C116.459 129.622 114.575 130.432 112.792 130.818C111.009 131.203 109.673 131.182 108.784 130.754C107.438 130.107 107.175 128.931 107.996 127.224C108.077 127.056 108.742 126.103 109.991 124.367C108.018 125.578 106.241 126.351 104.66 126.685C103.114 127.008 101.885 126.949 100.971 126.51C99.6256 125.863 99.3629 124.686 100.183 122.98L102.177 122.341C101.969 122.773 101.946 123.221 102.108 123.684C102.295 124.158 102.604 124.499 103.037 124.707C103.83 125.088 105.223 124.929 107.216 124.231C109.233 123.543 111.332 122.378 113.513 120.734C113.984 120.369 114.532 119.937 115.157 119.438C115.817 118.927 116.288 118.562 116.571 118.343C116.854 118.124 117.172 117.892 117.526 117.648C118.093 117.27 118.544 117.161 118.881 117.323C119.217 117.485 119.43 117.75 119.519 118.118C119.609 118.487 119.567 118.851 119.393 119.212C119.231 119.548 118.933 119.893 118.497 120.245C118.085 120.61 117.46 121.078 116.622 121.652C115.796 122.201 115.129 122.665 114.622 123.043C113.211 124.376 112.362 125.344 112.073 125.945C111.784 126.545 111.721 127.077 111.883 127.54C112.069 128.014 112.378 128.355 112.811 128.563C113.628 128.956 114.902 128.799 116.632 128.092C118.398 127.373 120.495 126.059 122.923 124.149C123.217 123.906 123.553 123.638 123.93 123.346C124.319 123.03 124.607 122.799 124.796 122.653C124.996 122.482 125.22 122.294 125.467 122.088C125.738 121.893 125.939 121.752 126.069 121.667C126.234 121.569 126.394 121.483 126.548 121.409C126.868 121.297 127.16 121.304 127.425 121.431C127.713 121.57 127.902 121.823 127.991 122.192C128.08 122.56 128.038 122.924 127.865 123.285C127.703 123.621 126.386 124.823 123.913 126.888C121.476 128.942 120.125 130.245 119.859 130.798C119.593 131.35 119.505 131.811 119.594 132.179C119.707 132.559 119.872 132.801 120.088 132.905C120.329 133.021 120.515 133.095 120.646 133.129C120.778 133.163 120.921 133.173 121.076 133.158C121.231 133.144 121.356 133.13 121.451 133.117C121.57 133.115 121.719 133.083 121.897 133.02L122.271 132.889C122.377 132.852 122.526 132.79 122.715 132.704C122.94 132.605 123.088 132.543 123.159 132.518ZM136.362 138.777L136.879 139.824C135.637 140.499 134.2 140.874 132.567 140.947C130.945 140.996 129.522 140.725 128.296 140.136C127.071 139.547 126.259 138.712 125.86 137.633C125.462 136.554 125.546 135.426 126.112 134.248C127.175 132.037 129.386 130.422 132.746 129.404C136.13 128.398 139.023 128.472 141.426 129.628C143.013 130.39 143.505 131.397 142.904 132.646C142.28 133.944 140.809 134.849 138.492 135.362C136.198 135.887 133.277 135.962 129.729 135.588C129.679 136.244 129.808 136.839 130.114 137.371C130.42 137.903 130.814 138.284 131.295 138.515C132.328 139.012 134.017 139.099 136.362 138.777ZM130.068 134.419C132.339 134.682 134.413 134.644 136.293 134.305C138.172 133.966 139.314 133.376 139.718 132.535C139.868 132.222 139.881 131.888 139.756 131.532C139.631 131.176 139.413 130.923 139.1 130.773C137.971 130.23 136.404 130.35 134.401 131.132C132.433 131.902 130.989 132.998 130.068 134.419ZM159.962 138.096L161.212 139.096C161.107 139.253 160.406 139.819 159.109 140.793C157.848 141.755 156.342 143.102 154.592 144.834C152.853 146.543 151.367 148.403 150.134 150.414L147.914 149.124C148.549 147.802 149.79 146.298 151.637 144.612C151.432 144.484 150.993 144.258 150.32 143.934C149.671 143.622 148.394 143.201 146.49 142.67C143.947 144.82 142.207 146.869 141.271 148.816L139.012 147.33C139.832 145.623 141.48 143.827 143.956 141.94C142.638 141.543 141.273 141.242 139.863 141.037L140.178 139.458C140.213 139.386 140.948 139.488 142.384 139.764C143.843 140.051 144.908 140.297 145.58 140.501C149.628 137.004 152.169 135.074 153.201 134.712L154.456 136.07C154.221 136.253 153.684 136.661 152.847 137.294C150.76 138.865 149.242 140.146 148.291 141.139C150.486 141.928 151.788 142.421 152.196 142.617C152.629 142.825 152.983 143.011 153.26 143.173C156.803 140.113 159.037 138.42 159.962 138.096ZM179.478 151.074C179.593 151.573 179.573 152.2 179.418 152.954C179.274 153.684 179.098 154.265 178.89 154.697C177.873 156.812 176.334 158.321 174.273 159.224C172.223 160.102 170.261 160.091 168.386 159.189C166.992 158.519 166.089 157.597 165.678 156.422C165.301 155.236 165.454 153.933 166.136 152.515C166.356 152.059 166.547 151.722 166.711 151.504C166.255 151.345 165.254 151.026 163.708 150.549C161.879 151.83 160.537 153.359 159.682 155.138L157.606 153.917C158.253 152.572 159.442 151.205 161.174 149.819C160.478 149.543 159.383 149.298 157.889 149.083L158.204 147.503C158.251 147.407 158.854 147.475 160.015 147.708C161.199 147.952 162.127 148.176 162.798 148.38C166.847 144.883 169.387 142.953 170.419 142.591L171.675 143.949C171.18 144.362 170.344 145.055 169.166 146.028C168 146.976 166.781 147.973 165.509 149.018L168.046 149.927C169.515 148.533 171.284 147.623 173.353 147.197C175.422 146.772 177.321 146.975 179.052 147.807C179.46 148.003 179.743 148.154 179.9 148.259L179.436 149.501C177.513 148.576 175.649 148.36 173.844 148.854C172.039 149.347 170.72 150.458 169.888 152.189C169.391 153.222 169.239 154.185 169.432 155.076C169.636 155.944 170.183 156.591 171.072 157.019C171.961 157.446 172.921 157.42 173.951 156.938C175.005 156.469 175.804 155.669 176.347 154.54C176.601 154.011 176.806 153.34 176.96 152.527C177.126 151.689 177.248 151.097 177.326 150.75L179.478 151.074Z" fill="#CCCCCC"/>
<path d="M-489.819 278.22L-284.395 -152.997C-104.145 -123.923 -89.1859 -66.4901 -5.3793 9.60163L96.0871 45.0682L82.6944 102.793L67.8031 94.2445L-57.9003 487.505C-114.508 453.574 -243.89 444.228 -299.057 417.957C-355.145 391.248 -434.796 272.486 -489.819 278.22Z" fill="#0B0A0A" fill-opacity="0.22"/>
<path d="M-556.207 345.651L-327.341 -267.34C-147.091 -238.266 51.7327 -125.785 135.539 -49.6938L94.4002 103.038L67.7026 87.9773L-64.9089 562.098C-117.851 526.102 -252.787 451.093 -307.954 424.822C-364.042 398.112 -501.184 339.917 -556.207 345.651Z" fill="#9A9A9A" stroke="#8B8B8B"/>
<path d="M-556.208 345.651L-327.572 -267.052C-147.322 -237.978 51.7318 -125.785 135.538 -49.6937L94.3994 103.039L67.7017 87.9774L-64.6208 562.328C-112.307 530.986 -241.885 456.173 -304.549 427.06C-363.413 396.727 -505.451 339.351 -556.208 345.651Z" fill="#747474" stroke="#525252"/>
</g>
<defs>
<linearGradient id="paint0_linear_432_9107" x1="-394.513" y1="139.484" x2="149.537" y2="32.4231" gradientUnits="userSpaceOnUse">
<stop stop-color="#454444"/>
<stop offset="1" stop-color="#6B6B6B" stop-opacity="0"/>
</linearGradient>
<clipPath id="clip0_432_9107">
<rect width="253" height="453" fill="white"/>
</clipPath>
</defs>
</svg>
